<svg viewBox="0 0 39 40" width="100%" height="100%" fill="none" xmlns="http://www.w3.org/2000/svg">
<path d="M7 9H2C0.9 9 0 8.1 0 7C0 5.9 0.9 5 2 5H7C8.1 5 9 5.9 9 7C9 8.1 8.1 9 7 9Z" fill="currentColor"/>
<path d="M7 17H2C0.9 17 0 16.1 0 15C0 13.9 0.9 13 2 13H7C8.1 13 9 13.9 9 15C9 16.1 8.1 17 7 17Z" fill="currentColor"/>
<path d="M7 25H2C0.9 25 0 24.1 0 23C0 21.9 0.9 21 2 21H7C8.1 21 9 21.9 9 23C9 24.1 8.1 25 7 25Z" fill="currentColor"/>
<path d="M7 33H2C0.9 33 0 32.1 0 31C0 29.9 0.9 29 2 29H7C8.1 29 9 29.9 9 31C9 32.1 8.1 33 7 33Z" fill="currentColor"/>
<path d="M32.89 0H11.11C7.74 0 5 2.74 5 6.11V33.88C5 37.26 7.74 40 11.11 40H32.88C36.26 40 38.99 37.26 38.99 33.89V6.11C39 2.74 36.26 0 32.89 0ZM22.45 8.6C24.81 8.6 26.72 10.51 26.72 12.87C26.72 15.23 24.81 17.14 22.45 17.14C20.09 17.14 18.18 15.23 18.18 12.87C18.18 10.51 20.09 8.6 22.45 8.6ZM30.45 29.4H14.45V27.67C14.45 23.03 18.21 19.27 22.85 19.27C27.05 19.27 30.45 22.67 30.45 26.87V29.4Z" fill="currentColor"/>
</svg>
