<svg viewBox="0 0 59 40" fill="none" xmlns="http://www.w3.org/2000/svg">
  <path d="M30 16.0054C34.4183 16.0054 38 12.4236 38 8.00537C38 3.58709 34.4183 0.00537109 30 0.00537109C25.5817 0.00537109 22 3.58709 22 8.00537C22 12.4236 25.5817 16.0054 30 16.0054Z" fill="currentColor" />
  <path d="M45 39.0054H15V31.9754C15 25.3654 20.36 20.0054 26.97 20.0054H34.18C40.15 20.0054 45 24.8554 45 30.8254V39.0054Z" fill="currentColor" />
  <path d="M10.9999 15.7454C14.2418 15.7454 16.8699 13.1173 16.8699 9.87537C16.8699 6.63346 14.2418 4.00537 10.9999 4.00537C7.75797 4.00537 5.12988 6.63346 5.12988 9.87537C5.12988 13.1173 7.75797 15.7454 10.9999 15.7454Z" fill="currentColor" />
  <path d="M12 29.9753C12 25.6753 14.28 21.9053 17.69 19.7953C16.44 19.0853 15 18.6653 13.46 18.6653H9.46C4.23 18.6753 0 22.9053 0 28.1253V32.6053H12V29.9753Z" fill="currentColor" />
  <path d="M47.6901 15.7454C50.932 15.7454 53.5601 13.1173 53.5601 9.87537C53.5601 6.63346 50.932 4.00537 47.6901 4.00537C44.4482 4.00537 41.8201 6.63346 41.8201 9.87537C41.8201 13.1173 44.4482 15.7454 47.6901 15.7454Z" fill="currentColor" />
  <path d="M46.69 29.9753C46.69 25.6753 44.41 21.9053 41 19.7953C42.25 19.0853 43.69 18.6653 45.23 18.6653H49.23C54.45 18.6653 58.68 22.8953 58.68 28.1153V32.5953H46.68V29.9753H46.69Z" fill="currentColor" />
</svg>