<svg viewBox="0 0 44 44" width="100%" height="100%" fill="currentColor" xmlns="http://www.w3.org/2000/svg">
<path d="M22 34C28.6274 34 34 28.6274 34 22C34 15.3726 28.6274 10 22 10C15.3726 10 10 15.3726 10 22C10 28.6274 15.3726 34 22 34Z" fill="currentColor"/>
<path d="M6.5 24H1.5C0.67 24 0 23.33 0 22.5C0 21.67 0.67 21 1.5 21H6.5C7.33 21 8 21.67 8 22.5C8 23.33 7.33 24 6.5 24Z" fill="currentColor"/>
<path d="M42.5 24H37.5C36.67 24 36 23.33 36 22.5C36 21.67 36.67 21 37.5 21H42.5C43.33 21 44 21.67 44 22.5C44 23.33 43.33 24 42.5 24Z" fill="currentColor"/>
<path d="M24 37.5V42.5C24 43.33 23.33 44 22.5 44C21.67 44 21 43.33 21 42.5V37.5C21 36.67 21.67 36 22.5 36C23.33 36 24 36.67 24 37.5Z" fill="currentColor"/>
<path d="M24 1.5V6.5C24 7.33 23.33 8 22.5 8C21.67 8 21 7.33 21 6.5V1.5C21 0.67 21.67 0 22.5 0C23.33 0 24 0.67 24 1.5Z" fill="currentColor"/>
<path d="M12.6001 34.02L9.06006 37.56C8.47006 38.15 7.52006 38.15 6.94006 37.56C6.35006 36.97 6.35006 36.02 6.94006 35.44L10.4801 31.9C11.0701 31.31 12.0201 31.31 12.6001 31.9C13.1901 32.49 13.1901 33.44 12.6001 34.02Z" fill="currentColor"/>
<path d="M38.06 8.56006L34.52 12.1001C33.93 12.6901 32.98 12.6901 32.4 12.1001C31.81 11.5101 31.81 10.5601 32.4 9.98006L35.94 6.44006C36.53 5.85006 37.48 5.85006 38.06 6.44006C38.64 7.03006 38.64 7.98006 38.06 8.56006Z" fill="currentColor"/>
<path d="M9.88998 11.6601L6.35998 8.12012C5.76998 7.53012 5.76998 6.58012 6.35998 6.00012C6.94998 5.41012 7.89998 5.41012 8.47998 6.00012L12.02 9.54012C12.61 10.1301 12.61 11.0801 12.02 11.6601C11.43 12.2401 10.48 12.2401 9.88998 11.6601Z" fill="currentColor"/>
<path d="M35.3499 37.1101L31.8099 33.5701C31.2199 32.9801 31.2199 32.0301 31.8099 31.4501C32.3999 30.8601 33.3499 30.8601 33.9299 31.4501L37.4699 34.9901C38.0599 35.5801 38.0599 36.5301 37.4699 37.1101C36.8799 37.7001 35.9299 37.7001 35.3499 37.1101Z" fill="currentColor"/>
</svg>
