<svg width="48" height="38" viewBox="0 0 48 38" fill="none" xmlns="http://www.w3.org/2000/svg">
<g filter="url(#filter0_d_275_31088)">
<rect x="1" width="46" height="36" rx="4.8" fill="white"/>
</g>
<path d="M1 4.8C1 2.14903 3.14903 0 5.8 0H42.2C44.851 0 47 2.14903 47 4.8V12H1V4.8Z" fill="#9F2B7D"/>
<path d="M18.8785 17.8056C19.477 17.8056 20.0527 17.906 20.6058 18.1068C21.1626 18.3075 21.6588 18.6276 22.0944 19.067C22.5338 19.5064 22.8804 20.0897 23.1342 20.817C23.3917 21.5405 23.5224 22.4287 23.5262 23.4818C23.5262 24.4704 23.4145 25.353 23.191 26.1295C22.9713 26.9022 22.655 27.5594 22.2421 28.1011C21.8292 28.6427 21.3311 29.0556 20.7478 29.3397C20.1645 29.62 19.513 29.7602 18.7933 29.7602C18.0167 29.7602 17.3311 29.6105 16.7364 29.3113C16.1417 29.0083 15.6626 28.5973 15.2989 28.0783C14.9391 27.5556 14.7213 26.9685 14.6455 26.317H17.0717C17.1664 26.7412 17.3652 27.0708 17.6683 27.3056C17.9713 27.5367 18.3463 27.6522 18.7933 27.6522C19.5508 27.6522 20.1266 27.3227 20.5205 26.6636C20.9145 26.0007 21.1133 25.0935 21.1171 23.942H21.0376C20.8633 24.2829 20.6285 24.5765 20.333 24.8227C20.0376 25.0651 19.6986 25.2526 19.316 25.3852C18.9372 25.5177 18.5338 25.584 18.1058 25.584C17.4201 25.584 16.8084 25.423 16.2705 25.1011C15.7326 24.7791 15.3084 24.3359 14.9978 23.7715C14.6872 23.2071 14.5319 22.5632 14.5319 21.8397C14.5281 21.0594 14.708 20.3643 15.0717 19.7545C15.4353 19.1446 15.9429 18.6674 16.5944 18.3227C17.2497 17.9742 18.0111 17.8018 18.8785 17.8056ZM18.8955 19.7374C18.513 19.7374 18.172 19.8283 17.8728 20.0102C17.5773 20.192 17.3425 20.4363 17.1683 20.7431C16.9978 21.0499 16.9145 21.3927 16.9183 21.7715C16.9183 22.1541 17.0016 22.4988 17.1683 22.8056C17.3387 23.1086 17.5698 23.3511 17.8614 23.5329C18.1569 23.7109 18.494 23.7999 18.8728 23.7999C19.1569 23.7999 19.4201 23.7469 19.6626 23.6408C19.905 23.5348 20.1152 23.389 20.2933 23.2033C20.4751 23.014 20.6171 22.7961 20.7194 22.5499C20.8217 22.3037 20.8728 22.0424 20.8728 21.7658C20.869 21.3984 20.7819 21.0613 20.6114 20.7545C20.441 20.4477 20.2061 20.2015 19.9069 20.0158C19.6076 19.8302 19.2705 19.7374 18.8955 19.7374ZM27.2762 20.8738L28.8785 23.9249L30.5205 20.8738H33.0035L30.4751 25.2374L33.0717 29.6011H30.6001L28.8785 26.584L27.1853 29.6011H24.6853L27.2762 25.2374L24.7762 20.8738H27.2762Z" fill="#111212"/>
<path d="M13.9727 9V3.92695H12.7422L11.3008 7.52344H11.2727L9.83125 3.92695H8.60078V9H9.54648V5.57578H9.57461L10.9527 8.95078H11.6207L12.9988 5.57578H13.027V9H13.9727ZM16.4195 5.90977C16.8766 5.90977 17.1895 6.24023 17.2105 6.72187H15.6109C15.6461 6.25078 15.9695 5.90977 16.4195 5.90977ZM17.2246 7.84687C17.1297 8.13516 16.8414 8.32148 16.4652 8.32148C15.9414 8.32148 15.6004 7.95234 15.6004 7.41445V7.35117H18.1984V7.03828C18.1984 5.89219 17.5059 5.15039 16.409 5.15039C15.2945 5.15039 14.5914 5.93086 14.5914 7.1332C14.5914 8.33906 15.2875 9.08086 16.4477 9.08086C17.3793 9.08086 18.0543 8.58516 18.1668 7.84687H17.2246ZM20.4203 5.90977C20.8773 5.90977 21.1902 6.24023 21.2113 6.72187H19.6117C19.6469 6.25078 19.9703 5.90977 20.4203 5.90977ZM21.2254 7.84687C21.1305 8.13516 20.8422 8.32148 20.466 8.32148C19.9422 8.32148 19.6012 7.95234 19.6012 7.41445V7.35117H22.1992V7.03828C22.1992 5.89219 21.5066 5.15039 20.4098 5.15039C19.2953 5.15039 18.5922 5.93086 18.5922 7.1332C18.5922 8.33906 19.2883 9.08086 20.4484 9.08086C21.3801 9.08086 22.0551 8.58516 22.1676 7.84687H21.2254ZM23.0043 4.36289V5.23125H22.4734V6.00469H23.0043V7.98398C23.0043 8.71875 23.3488 9.01406 24.2348 9.01406C24.4422 9.01406 24.618 8.99648 24.7234 8.97187V8.21602C24.6602 8.22656 24.5652 8.23359 24.4738 8.23359C24.1715 8.23359 24.0309 8.09648 24.0309 7.8082V6.00469H24.727V5.23125H24.0309V4.36289H23.0043ZM25.307 9H26.3336V5.23125H25.307V9ZM25.8203 4.81641C26.1297 4.81641 26.3688 4.58086 26.3688 4.28555C26.3688 3.98672 26.1297 3.75469 25.8203 3.75469C25.5109 3.75469 25.2719 3.98672 25.2719 4.28555C25.2719 4.58086 25.5109 4.81641 25.8203 4.81641ZM27.0191 9H28.0457V6.83789C28.0457 6.34922 28.3375 6.01172 28.798 6.01172C29.2586 6.01172 29.4906 6.29297 29.4906 6.78516V9H30.5172V6.5707C30.5172 5.68828 30.0461 5.16094 29.2094 5.16094C28.6293 5.16094 28.232 5.43516 28.0316 5.90273H28.0105V5.23125H27.0191V9ZM32.9078 8.19844C32.398 8.19844 32.0816 7.79766 32.0816 7.10859C32.0816 6.42305 32.4016 5.99414 32.9078 5.99414C33.4211 5.99414 33.748 6.43008 33.748 7.10859C33.748 7.79062 33.4211 8.19844 32.9078 8.19844ZM32.8902 10.4203C34.0187 10.4203 34.7711 9.84727 34.7711 8.94727V5.23125H33.7586V5.88867H33.741C33.5441 5.45625 33.1187 5.17148 32.5773 5.17148C31.6211 5.17148 31.0305 5.90625 31.0305 7.10156C31.0305 8.2793 31.6387 8.98945 32.5598 8.98945C33.1047 8.98945 33.5477 8.71523 33.7234 8.31445H33.7445V8.97539C33.7445 9.41133 33.4492 9.70664 32.9184 9.70664C32.5281 9.70664 32.2328 9.52734 32.152 9.26719H31.1465C31.2273 9.93867 31.8988 10.4203 32.8902 10.4203ZM35.3793 6.33867C35.3793 6.89414 35.7449 7.2668 36.4586 7.42852L37.1547 7.5832C37.4922 7.66406 37.6188 7.76953 37.6188 7.95937C37.6188 8.20547 37.3832 8.36016 36.993 8.36016C36.5852 8.36016 36.3355 8.17734 36.2863 7.86094H35.2844C35.3406 8.5957 35.9594 9.08086 36.9648 9.08086C37.9598 9.08086 38.6418 8.59219 38.6418 7.85039C38.6418 7.28789 38.3359 6.98906 37.5801 6.82031L36.8594 6.66562C36.5289 6.58828 36.3672 6.46172 36.3672 6.27539C36.3672 6.03281 36.5992 5.87109 36.9543 5.87109C37.334 5.87109 37.5766 6.05742 37.5977 6.35977H38.5434C38.5293 5.62852 37.9141 5.15039 36.9684 5.15039C36.0016 5.15039 35.3793 5.62148 35.3793 6.33867Z" fill="white"/>
<defs>
<filter id="filter0_d_275_31088" x="0" y="0" width="48" height="38" filterUnits="userSpaceOnUse" color-interpolation-filters="sRGB">
<feFlood flood-opacity="0" result="BackgroundImageFix"/>
<feColorMatrix in="SourceAlpha" type="matrix" values="0 0 0 0 0 0 0 0 0 0 0 0 0 0 0 0 0 0 127 0" result="hardAlpha"/>
<feOffset dy="1"/>
<feGaussianBlur stdDeviation="0.5"/>
<feColorMatrix type="matrix" values="0 0 0 0 0.131737 0 0 0 0 0.131737 0 0 0 0 0.131737 0 0 0 0.0989128 0"/>
<feBlend mode="normal" in2="BackgroundImageFix" result="effect1_dropShadow_275_31088"/>
<feBlend mode="normal" in="SourceGraphic" in2="effect1_dropShadow_275_31088" result="shape"/>
</filter>
</defs>
</svg>
