<svg viewBox="0 0 59 57" fill="none" fill="currentColor" xmlns="http://www.w3.org/2000/svg">
<path d="M5.23361 26.2527C8.44271 26.3293 10.5646 29.0662 10.3262 32.2919C10.8555 35.3306 10.5789 39.4718 13.2778 41.0727C15.3378 39.9991 16.9638 37.4396 18.9426 35.786C21.0884 33.7873 23.5155 31.549 25.7185 29.3154C32.1891 22.9215 38.8029 16.3311 45.3736 10.2152C48.6114 7.07096 51.6011 3.64395 55.0439 0.816064C55.33 0.557241 55.5875 0.25528 56.0405 0.327176C56.3409 0.447001 56.4744 -0.214437 56.708 0.0731451C57.0132 0.442208 57.7142 0.403864 57.7571 0.964648C58.2148 2.22521 57.9764 3.11192 57.6712 4.42521C56.9941 6.30408 55.7448 7.64133 54.2952 9.19907C52.5357 11.1786 50.9765 13.0287 49.1693 15.013C43.7429 21.4117 37.8063 27.7289 32.3274 34.3529C28.1265 38.8919 24.0019 43.6274 20.1109 48.291C16.8303 50.8601 13.4113 58.8404 8.71928 56.6117C3.09262 53.7359 0.0790152 42.1032 0.0647101 35.7956C-0.102182 30.9594 -0.364442 26.8326 5.23361 26.2527Z" fill="currentColor"/>
</svg>
