<svg viewBox="0 0 48 46" fill="none" xmlns="http://www.w3.org/2000/svg">
<path d="M24 8C26.2091 8 28 6.20914 28 4C28 1.79086 26.2091 0 24 0C21.7909 0 20 1.79086 20 4C20 6.20914 21.7909 8 24 8Z" fill="currentColor"/>
<path d="M24.61 37H23.39C21.52 37 20 35.48 20 33.61L17 12.39C17 10.52 18.52 9 20.39 9H27.61C29.48 9 31 10.52 31 12.39L28 33.61C28 35.48 26.48 37 24.61 37Z" fill="currentColor"/>
<path d="M9.99989 12C11.5794 12 12.8599 10.7196 12.8599 9.14003C12.8599 7.5605 11.5794 6.28003 9.99989 6.28003C8.42036 6.28003 7.13989 7.5605 7.13989 9.14003C7.13989 10.7196 8.42036 12 9.99989 12Z" fill="currentColor"/>
<path d="M10.43 32.71H9.57C8.23 32.71 7.15 31.63 7.15 30.29L5 15.14C5 13.8 6.08 12.72 7.42 12.72H12.58C13.92 12.72 15 13.8 15 15.14L12.86 30.3C12.86 31.63 11.77 32.71 10.43 32.71Z" fill="currentColor"/>
<path d="M38.9999 12C40.5794 12 41.8599 10.7196 41.8599 9.14003C41.8599 7.5605 40.5794 6.28003 38.9999 6.28003C37.4204 6.28003 36.1399 7.5605 36.1399 9.14003C36.1399 10.7196 37.4204 12 38.9999 12Z" fill="currentColor"/>
<path d="M39.43 32.71H38.56C37.22 32.71 36.14 31.63 36.14 30.29L34 15.14C34 13.8 35.08 12.72 36.42 12.72H41.58C42.92 12.72 44 13.8 44 15.14L41.86 30.3C41.86 31.63 40.77 32.71 39.43 32.71Z" fill="currentColor"/>
<path d="M24 44C36.1503 44 46 38.8513 46 32.5C46 26.1487 36.1503 21 24 21C11.8497 21 2 26.1487 2 32.5C2 38.8513 11.8497 44 24 44Z" stroke="currentColor" stroke-width="4" stroke-miterlimit="10"/>
</svg>
