<svg viewBox="0 0 42 42" fill="none" xmlns="http://www.w3.org/2000/svg">
<path d="M21 40C31.4934 40 40 31.4934 40 21C40 10.5066 31.4934 2 21 2C10.5066 2 2 10.5066 2 21C2 31.4934 10.5066 40 21 40Z" stroke="currentColor" stroke-width="4" stroke-miterlimit="10"/>
<path d="M12.8701 29.6301C12.4001 29.1601 12.4001 28.3901 12.8701 27.9201L18.4301 18.9301L27.4201 13.3701C27.8901 12.9001 28.6601 12.9001 29.1301 13.3701C29.6001 13.8401 29.6001 14.6101 29.1301 15.0801L23.5701 24.0701L14.5801 29.6301C14.1101 30.1001 13.3401 30.1001 12.8701 29.6301Z" fill="currentColor"/>
</svg>
