<svg viewBox="0 0 42 43" fill="none" xmlns="http://www.w3.org/2000/svg">
<path d="M21 40.0054C31.4934 40.0054 40 31.4988 40 21.0054C40 10.512 31.4934 2.00537 21 2.00537C10.5066 2.00537 2 10.512 2 21.0054C2 31.4988 10.5066 40.0054 21 40.0054Z" stroke="currentColor" stroke-width="4" stroke-miterlimit="10"/>
<path d="M12.8701 29.6354C12.4001 29.1654 12.4001 28.3954 12.8701 27.9254L18.4301 18.9354L27.4201 13.3754C27.8901 12.9054 28.6601 12.9054 29.1301 13.3754C29.6001 13.8454 29.6001 14.6154 29.1301 15.0854L23.5701 24.0754L14.5801 29.6354C14.1101 30.1054 13.3401 30.1054 12.8701 29.6354Z" fill="currentColor"/>
</svg>
