<svg fill="currentColor" viewBox="0 0 49 49" fill="none" xmlns="http://www.w3.org/2000/svg">
<path d="M34.3348 17.7315C32.9243 17.6828 33.8762 14.5561 33.8623 13.6968C33.7697 12.907 34.0198 12.196 34.1426 11.4757C34.168 8.84232 35.0319 6.32937 34.9092 3.67282C34.2352 -0.0931381 29.0402 -1.11222 26.4092 1.31273C23.5766 5.31955 22.8864 10.5678 19.8639 14.5955C18.6827 16.2283 17.029 18.7482 15.2781 19.5982C15.1947 18.8108 14.53 18.1947 13.7193 18.1947H1.57146C0.705248 18.1947 0.00347413 18.8964 0.00347413 19.7627V40.758C-0.00115804 41.1332 -0.00115804 41.5038 0.00347413 41.8604V45.3461C0.00347413 46.2124 0.705248 46.9141 1.57146 46.9141H13.7216C14.5879 46.9141 15.2896 46.2124 15.2896 45.3461V44.8667C16.2832 44.9825 17.2514 45.3045 18.2102 45.5662C25.3669 46.9813 34.8351 49.749 41.9316 47.1643C45.7091 44.957 45.4011 39.8941 46.4294 36.2184C47.2122 32.1329 48.1364 28.1098 48.6922 23.9803C48.4838 16.5711 39.6896 17.2057 34.3348 17.7315ZM44.9517 29.1405C44.9448 29.9581 44.6669 30.7409 44.4932 31.5539C44.4654 32.2047 44.2523 32.7489 44.1805 33.3928C44.25 33.8005 43.9211 34.0575 43.9118 34.4536C43.884 34.7941 43.9697 35.153 43.7034 35.4449C43.6038 35.8131 43.7636 36.2439 43.4555 36.5728C43.2957 36.9573 43.5134 37.4437 43.2031 37.8165C42.8047 39.6532 42.5708 41.696 41.8389 43.4215C39.7058 47.1967 30.4646 44.7092 26.7936 44.5355C26.291 44.0978 25.6194 44.5448 25.0959 44.1395C24.9894 44.0561 24.781 44.1001 24.6188 44.0885C24.3455 44.07 24.0653 44.114 23.8244 43.9032C23.4423 43.7434 22.9096 43.975 22.5621 43.6207C20.7903 43.3196 18.9722 42.898 17.205 42.363C16.6909 42.2032 15.8571 42.1824 15.2896 41.9068V22.9125C15.3244 22.8778 15.3591 22.8454 15.3962 22.8176C20.7996 20.0406 23.6924 14.1925 25.9459 8.82147C26.9002 7.09599 27.0831 4.87255 28.3524 3.38099C29.4293 2.34802 31.8427 2.72322 32.1322 4.31669C32.1901 8.07569 29.0287 17.5832 32.2133 20.1657C35.0435 21.2148 38.4551 19.5866 41.4174 20.4899C46.4896 20.5084 46.1098 24.3115 45.1857 28.045C45.2644 28.4572 44.9911 28.7398 44.9517 29.1405Z" fill="currentColor"/>
</svg>
