<svg id="Layer_1" data-name="Layer 1" fill="none" xmlns="http://www.w3.org/2000/svg" viewBox="0 0 17.96 17.03">
  <path fill="currentColor" class="cls-1" d="M10,2.6,3.6,6,10,9.4,16.4,6ZM10.2.8a.45.45,0,0,0-.5,0l-8,4.3a1,1,0,0,0,0,1.8l8.1,4.3a.45.45,0,0,0,.5,0l8.1-4.3a1,1,0,0,0,0-1.8Zm8.7,8.6a.84.84,0,0,1-.4,1.1l-7.9,4a1.28,1.28,0,0,1-1.2,0l-7.9-4A.85.85,0,1,1,2.3,9L10,12.9,17.7,9A.84.84,0,0,1,18.9,9.4Zm0,3.1a.84.84,0,0,1-.4,1.1l-7.9,4a1.28,1.28,0,0,1-1.2,0l-7.9-4a.83.83,0,0,1,.7-1.5L10,16l7.7-3.9A.93.93,0,0,1,18.9,12.5Z" transform="translate(-1.02 -0.72)" />
</svg>