<svg viewBox="0 0 59 39" fill="none" xmlns="http://www.w3.org/2000/svg">
<path d="M30 16C34.4183 16 38 12.4183 38 8C38 3.58172 34.4183 0 30 0C25.5817 0 22 3.58172 22 8C22 12.4183 25.5817 16 30 16Z" fill="currentColor"/>
<path d="M45 39H15V31.97C15 25.36 20.36 20 26.97 20H34.18C40.15 20 45 24.85 45 30.82V39Z" fill="currentColor"/>
<path d="M10.9999 15.74C14.2418 15.74 16.8699 13.1119 16.8699 9.87C16.8699 6.62809 14.2418 4 10.9999 4C7.75797 4 5.12988 6.62809 5.12988 9.87C5.12988 13.1119 7.75797 15.74 10.9999 15.74Z" fill="currentColor"/>
<path d="M12 29.9699C12 25.6699 14.28 21.8999 17.69 19.7899C16.44 19.0799 15 18.6599 13.46 18.6599H9.46C4.23 18.6699 0 22.8999 0 28.1199V32.5999H12V29.9699Z" fill="currentColor"/>
<path d="M47.6901 15.74C50.932 15.74 53.5601 13.1119 53.5601 9.87C53.5601 6.62809 50.932 4 47.6901 4C44.4482 4 41.8201 6.62809 41.8201 9.87C41.8201 13.1119 44.4482 15.74 47.6901 15.74Z" fill="currentColor"/>
<path d="M46.69 29.9699C46.69 25.6699 44.41 21.8999 41 19.7899C42.25 19.0799 43.69 18.6599 45.23 18.6599H49.23C54.45 18.6599 58.68 22.8899 58.68 28.1099V32.5899H46.68V29.9699H46.69Z" fill="currentColor"/>
</svg>
