<svg width="99" height="29" viewBox="0 0 99 29" fill="none" xmlns="http://www.w3.org/2000/svg">
<circle cx="14.6" cy="14.6" r="12.6" stroke="black" stroke-width="2.2"/>
<path d="M6.67573 23.1243L14.6 14.939" stroke="black" stroke-width="2.2" stroke-linecap="square"/>
<path d="M22.661 23L14.6 14.939" stroke="black" stroke-width="2.2" stroke-linecap="square"/>
<path d="M2.9 18.5L14.6 6.53894" stroke="black" stroke-width="2.2" stroke-linecap="square"/>
<path d="M26.3 17.9L14.6 6.53894" stroke="black" stroke-width="2.2" stroke-linecap="square"/>
<mask id="path-6-outside-1" maskUnits="userSpaceOnUse" x="38.062" y="9.17285" width="61" height="11" fill="black">
<rect fill="white" x="38.062" y="9.17285" width="61" height="11"/>
<path fill-rule="evenodd" clip-rule="evenodd" d="M42.262 19.7025C42.7911 19.7025 43.2636 19.6225 43.6796 19.4625C44.0956 19.3025 44.4455 19.0827 44.7292 18.8033C45.013 18.5238 45.2295 18.1963 45.3788 17.8209C45.5282 17.4454 45.6028 17.0422 45.6028 16.6113C45.6028 16.223 45.5431 15.8913 45.4236 15.6161C45.3042 15.3409 45.1474 15.1073 44.9532 14.9153C44.7591 14.7233 44.5372 14.5654 44.2876 14.4417C44.038 14.3179 43.7831 14.2102 43.5228 14.1185C43.2626 14.0267 43.0076 13.9435 42.758 13.8689C42.5084 13.7942 42.2866 13.7121 42.0924 13.6225C41.8983 13.5329 41.7415 13.4262 41.622 13.3025C41.5026 13.1787 41.4428 13.023 41.4428 12.8353C41.4428 12.5409 41.542 12.3073 41.7404 12.1345C41.9388 11.9617 42.2407 11.8753 42.646 11.8753C42.8807 11.8753 43.0898 11.9062 43.2732 11.9681C43.4567 12.0299 43.6199 12.0993 43.7628 12.1761C43.9058 12.2529 44.0338 12.3222 44.1468 12.3841C44.2599 12.4459 44.3655 12.4769 44.4636 12.4769C44.5746 12.4769 44.6652 12.4513 44.7356 12.4001C44.806 12.3489 44.8732 12.2721 44.9372 12.1697L45.4748 11.1649C45.3084 11.0113 45.1196 10.8737 44.9084 10.7521C44.6972 10.6305 44.47 10.5259 44.2268 10.4385C43.9836 10.351 43.7266 10.2849 43.4556 10.2401C43.1847 10.1953 42.9063 10.1729 42.6204 10.1729C42.1084 10.1729 41.654 10.2507 41.2572 10.4065C40.8604 10.5622 40.5255 10.7702 40.2524 11.0305C39.9794 11.2907 39.7724 11.5873 39.6316 11.9201C39.4908 12.2529 39.4204 12.5942 39.4204 12.9441C39.4204 13.3793 39.4802 13.7451 39.5996 14.0417C39.7191 14.3382 39.8759 14.5857 40.07 14.7841C40.2642 14.9825 40.485 15.1425 40.7324 15.2641C40.9799 15.3857 41.2338 15.4881 41.494 15.5713C41.7543 15.6545 42.0082 15.7302 42.2556 15.7985C42.5031 15.8667 42.7239 15.9457 42.918 16.0353C43.1122 16.1249 43.269 16.2379 43.3884 16.3745C43.5079 16.511 43.5676 16.6881 43.5676 16.9057C43.5676 17.2811 43.4588 17.5553 43.2412 17.7281C43.0236 17.9009 42.7186 17.9873 42.326 17.9873C42.0359 17.9873 41.7842 17.9467 41.5708 17.8657C41.3575 17.7846 41.1687 17.695 41.0044 17.5969C40.8402 17.4987 40.693 17.4091 40.5628 17.3281C40.4327 17.247 40.3036 17.2065 40.1756 17.2065C40.0775 17.2065 39.9858 17.2299 39.9004 17.2769C39.8151 17.3238 39.749 17.3857 39.702 17.4625L39.062 18.4737C39.2455 18.6571 39.461 18.8235 39.7084 18.9729C39.9559 19.1222 40.2204 19.2513 40.502 19.3601C40.7836 19.4689 41.0748 19.5531 41.3756 19.6129C41.6764 19.6726 41.9719 19.7025 42.262 19.7025ZM53.2252 19.6001V11.9905H55.8492V10.2753H48.438V11.9905H51.062V19.6001H53.2252ZM61.3084 16.1505V19.6001H59.1452V10.2753H62.1788C62.853 10.2753 63.4279 10.3446 63.9036 10.4833C64.3794 10.6219 64.7676 10.815 65.0684 11.0625C65.3692 11.3099 65.5879 11.6022 65.7244 11.9393C65.861 12.2763 65.9292 12.6433 65.9292 13.0401C65.9292 13.343 65.8887 13.6289 65.8076 13.8977C65.7266 14.1665 65.606 14.415 65.446 14.6433C65.286 14.8715 65.0898 15.0753 64.8572 15.2545C64.6247 15.4337 64.357 15.5809 64.054 15.6961C64.1991 15.7686 64.3346 15.8582 64.4604 15.9649C64.5863 16.0715 64.6962 16.2017 64.79 16.3553L66.774 19.6001H64.8156C64.453 19.6001 64.1927 19.4635 64.0348 19.1905L62.486 16.4833C62.4178 16.3638 62.3378 16.2785 62.246 16.2273C62.1543 16.1761 62.0252 16.1505 61.8588 16.1505H61.3084ZM62.1788 14.6593H61.3084V11.8945H62.1788C62.7378 11.8945 63.1506 12.0097 63.4172 12.2401C63.6839 12.4705 63.8172 12.7905 63.8172 13.2001C63.8172 13.4049 63.7874 13.5958 63.7276 13.7729C63.6679 13.9499 63.5719 14.1046 63.4396 14.2369C63.3074 14.3691 63.1378 14.4726 62.9308 14.5473C62.7239 14.6219 62.4732 14.6593 62.1788 14.6593ZM71.446 19.4561C71.3223 19.5521 71.1708 19.6001 70.9916 19.6001H69.302L72.9116 10.2753H75.126L78.7356 19.6001H77.0588C76.8711 19.6001 76.7164 19.5563 76.5948 19.4689C76.4732 19.3814 76.389 19.2694 76.342 19.1329L75.7916 17.5073H72.246L71.6956 19.1329C71.653 19.2523 71.5698 19.3601 71.446 19.4561ZM72.7452 16.0353L73.6028 13.4945C73.6668 13.3323 73.7351 13.1403 73.8076 12.9185C73.8802 12.6966 73.9506 12.4555 74.0188 12.1953C74.0914 12.4513 74.165 12.6891 74.2396 12.9089C74.3143 13.1286 74.3794 13.3195 74.4348 13.4817L75.2924 16.0353H72.7452ZM85.014 11.9905V19.6001H82.8508V11.9905H80.2268V10.2753H87.638V11.9905H85.014ZM90.8444 19.6001C91.0236 19.6001 91.1751 19.5521 91.2988 19.4561C91.4226 19.3601 91.5058 19.2523 91.5484 19.1329L92.0988 17.5073H95.6444L96.1948 19.1329C96.2418 19.2694 96.326 19.3814 96.4476 19.4689C96.5692 19.5563 96.7239 19.6001 96.9116 19.6001H98.5884L94.9788 10.2753H92.7644L89.1548 19.6001H90.8444ZM93.4556 13.4945L92.598 16.0353H95.1452L94.2876 13.4817C94.2322 13.3195 94.1671 13.1286 94.0924 12.9089C94.0178 12.6891 93.9442 12.4513 93.8716 12.1953C93.8034 12.4555 93.733 12.6966 93.6604 12.9185C93.5879 13.1403 93.5196 13.3323 93.4556 13.4945Z"/>
</mask>
<path fill-rule="evenodd" clip-rule="evenodd" d="M42.262 19.7025C42.7911 19.7025 43.2636 19.6225 43.6796 19.4625C44.0956 19.3025 44.4455 19.0827 44.7292 18.8033C45.013 18.5238 45.2295 18.1963 45.3788 17.8209C45.5282 17.4454 45.6028 17.0422 45.6028 16.6113C45.6028 16.223 45.5431 15.8913 45.4236 15.6161C45.3042 15.3409 45.1474 15.1073 44.9532 14.9153C44.7591 14.7233 44.5372 14.5654 44.2876 14.4417C44.038 14.3179 43.7831 14.2102 43.5228 14.1185C43.2626 14.0267 43.0076 13.9435 42.758 13.8689C42.5084 13.7942 42.2866 13.7121 42.0924 13.6225C41.8983 13.5329 41.7415 13.4262 41.622 13.3025C41.5026 13.1787 41.4428 13.023 41.4428 12.8353C41.4428 12.5409 41.542 12.3073 41.7404 12.1345C41.9388 11.9617 42.2407 11.8753 42.646 11.8753C42.8807 11.8753 43.0898 11.9062 43.2732 11.9681C43.4567 12.0299 43.6199 12.0993 43.7628 12.1761C43.9058 12.2529 44.0338 12.3222 44.1468 12.3841C44.2599 12.4459 44.3655 12.4769 44.4636 12.4769C44.5746 12.4769 44.6652 12.4513 44.7356 12.4001C44.806 12.3489 44.8732 12.2721 44.9372 12.1697L45.4748 11.1649C45.3084 11.0113 45.1196 10.8737 44.9084 10.7521C44.6972 10.6305 44.47 10.5259 44.2268 10.4385C43.9836 10.351 43.7266 10.2849 43.4556 10.2401C43.1847 10.1953 42.9063 10.1729 42.6204 10.1729C42.1084 10.1729 41.654 10.2507 41.2572 10.4065C40.8604 10.5622 40.5255 10.7702 40.2524 11.0305C39.9794 11.2907 39.7724 11.5873 39.6316 11.9201C39.4908 12.2529 39.4204 12.5942 39.4204 12.9441C39.4204 13.3793 39.4802 13.7451 39.5996 14.0417C39.7191 14.3382 39.8759 14.5857 40.07 14.7841C40.2642 14.9825 40.485 15.1425 40.7324 15.2641C40.9799 15.3857 41.2338 15.4881 41.494 15.5713C41.7543 15.6545 42.0082 15.7302 42.2556 15.7985C42.5031 15.8667 42.7239 15.9457 42.918 16.0353C43.1122 16.1249 43.269 16.2379 43.3884 16.3745C43.5079 16.511 43.5676 16.6881 43.5676 16.9057C43.5676 17.2811 43.4588 17.5553 43.2412 17.7281C43.0236 17.9009 42.7186 17.9873 42.326 17.9873C42.0359 17.9873 41.7842 17.9467 41.5708 17.8657C41.3575 17.7846 41.1687 17.695 41.0044 17.5969C40.8402 17.4987 40.693 17.4091 40.5628 17.3281C40.4327 17.247 40.3036 17.2065 40.1756 17.2065C40.0775 17.2065 39.9858 17.2299 39.9004 17.2769C39.8151 17.3238 39.749 17.3857 39.702 17.4625L39.062 18.4737C39.2455 18.6571 39.461 18.8235 39.7084 18.9729C39.9559 19.1222 40.2204 19.2513 40.502 19.3601C40.7836 19.4689 41.0748 19.5531 41.3756 19.6129C41.6764 19.6726 41.9719 19.7025 42.262 19.7025ZM53.2252 19.6001V11.9905H55.8492V10.2753H48.438V11.9905H51.062V19.6001H53.2252ZM61.3084 16.1505V19.6001H59.1452V10.2753H62.1788C62.853 10.2753 63.4279 10.3446 63.9036 10.4833C64.3794 10.6219 64.7676 10.815 65.0684 11.0625C65.3692 11.3099 65.5879 11.6022 65.7244 11.9393C65.861 12.2763 65.9292 12.6433 65.9292 13.0401C65.9292 13.343 65.8887 13.6289 65.8076 13.8977C65.7266 14.1665 65.606 14.415 65.446 14.6433C65.286 14.8715 65.0898 15.0753 64.8572 15.2545C64.6247 15.4337 64.357 15.5809 64.054 15.6961C64.1991 15.7686 64.3346 15.8582 64.4604 15.9649C64.5863 16.0715 64.6962 16.2017 64.79 16.3553L66.774 19.6001H64.8156C64.453 19.6001 64.1927 19.4635 64.0348 19.1905L62.486 16.4833C62.4178 16.3638 62.3378 16.2785 62.246 16.2273C62.1543 16.1761 62.0252 16.1505 61.8588 16.1505H61.3084ZM62.1788 14.6593H61.3084V11.8945H62.1788C62.7378 11.8945 63.1506 12.0097 63.4172 12.2401C63.6839 12.4705 63.8172 12.7905 63.8172 13.2001C63.8172 13.4049 63.7874 13.5958 63.7276 13.7729C63.6679 13.9499 63.5719 14.1046 63.4396 14.2369C63.3074 14.3691 63.1378 14.4726 62.9308 14.5473C62.7239 14.6219 62.4732 14.6593 62.1788 14.6593ZM71.446 19.4561C71.3223 19.5521 71.1708 19.6001 70.9916 19.6001H69.302L72.9116 10.2753H75.126L78.7356 19.6001H77.0588C76.8711 19.6001 76.7164 19.5563 76.5948 19.4689C76.4732 19.3814 76.389 19.2694 76.342 19.1329L75.7916 17.5073H72.246L71.6956 19.1329C71.653 19.2523 71.5698 19.3601 71.446 19.4561ZM72.7452 16.0353L73.6028 13.4945C73.6668 13.3323 73.7351 13.1403 73.8076 12.9185C73.8802 12.6966 73.9506 12.4555 74.0188 12.1953C74.0914 12.4513 74.165 12.6891 74.2396 12.9089C74.3143 13.1286 74.3794 13.3195 74.4348 13.4817L75.2924 16.0353H72.7452ZM85.014 11.9905V19.6001H82.8508V11.9905H80.2268V10.2753H87.638V11.9905H85.014ZM90.8444 19.6001C91.0236 19.6001 91.1751 19.5521 91.2988 19.4561C91.4226 19.3601 91.5058 19.2523 91.5484 19.1329L92.0988 17.5073H95.6444L96.1948 19.1329C96.2418 19.2694 96.326 19.3814 96.4476 19.4689C96.5692 19.5563 96.7239 19.6001 96.9116 19.6001H98.5884L94.9788 10.2753H92.7644L89.1548 19.6001H90.8444ZM93.4556 13.4945L92.598 16.0353H95.1452L94.2876 13.4817C94.2322 13.3195 94.1671 13.1286 94.0924 12.9089C94.0178 12.6891 93.9442 12.4513 93.8716 12.1953C93.8034 12.4555 93.733 12.6966 93.6604 12.9185C93.5879 13.1403 93.5196 13.3323 93.4556 13.4945Z" fill="black"/>
<path d="M45.3788 17.8209L45.5647 17.8948L45.3788 17.8209ZM43.7628 12.1761L43.8575 11.9999L43.7628 12.1761ZM44.9372 12.1697L45.1072 12.2759L45.1136 12.264L44.9372 12.1697ZM45.4748 11.1649L45.6512 11.2592L45.7242 11.1228L45.6105 11.0179L45.4748 11.1649ZM44.9084 10.7521L45.0082 10.5787V10.5787L44.9084 10.7521ZM39.6316 11.9201L39.8158 11.998V11.998L39.6316 11.9201ZM40.07 14.7841L40.213 14.6442H40.213L40.07 14.7841ZM43.2412 17.7281L43.3656 17.8847V17.8847L43.2412 17.7281ZM41.0044 17.5969L41.107 17.4252L41.0044 17.5969ZM39.702 17.4625L39.8711 17.5694L39.8727 17.5667L39.702 17.4625ZM39.062 18.4737L38.893 18.3667L38.8075 18.5019L38.9206 18.6151L39.062 18.4737ZM53.2252 11.9905V11.7905H53.0252V11.9905H53.2252ZM53.2252 19.6001V19.8001H53.4252V19.6001H53.2252ZM55.8492 11.9905V12.1905H56.0492V11.9905H55.8492ZM55.8492 10.2753H56.0492V10.0753H55.8492V10.2753ZM48.438 10.2753V10.0753H48.238V10.2753H48.438ZM48.438 11.9905H48.238V12.1905H48.438V11.9905ZM51.062 11.9905H51.262V11.7905H51.062V11.9905ZM51.062 19.6001H50.862V19.8001H51.062V19.6001ZM61.3084 19.6001V19.8001H61.5084V19.6001H61.3084ZM61.3084 16.1505V15.9505H61.1084V16.1505H61.3084ZM59.1452 19.6001H58.9452V19.8001H59.1452V19.6001ZM59.1452 10.2753V10.0753H58.9452V10.2753H59.1452ZM65.0684 11.0625L64.9414 11.2169V11.2169L65.0684 11.0625ZM65.7244 11.9393L65.5391 12.0143V12.0143L65.7244 11.9393ZM65.8076 13.8977L65.6162 13.8399V13.8399L65.8076 13.8977ZM64.8572 15.2545L64.7352 15.096V15.096L64.8572 15.2545ZM64.054 15.6961L63.983 15.5091L63.557 15.6711L63.9646 15.8749L64.054 15.6961ZM64.4604 15.9649L64.3311 16.1174L64.3311 16.1174L64.4604 15.9649ZM64.79 16.3553L64.6194 16.4595L64.6194 16.4596L64.79 16.3553ZM66.774 19.6001V19.8001H67.1308L66.9447 19.4957L66.774 19.6001ZM64.0348 19.1905L63.8612 19.2898L63.8617 19.2906L64.0348 19.1905ZM62.486 16.4833L62.3124 16.5825L62.3124 16.5826L62.486 16.4833ZM62.246 16.2273L62.1486 16.4019L62.1486 16.4019L62.246 16.2273ZM61.3084 14.6593H61.1084V14.8593H61.3084V14.6593ZM61.3084 11.8945V11.6945H61.1084V11.8945H61.3084ZM63.4172 12.2401L63.548 12.0887L63.548 12.0887L63.4172 12.2401ZM63.7276 13.7729L63.5381 13.7089V13.7089L63.7276 13.7729ZM63.4396 14.2369L63.5811 14.3783L63.5811 14.3783L63.4396 14.2369ZM69.302 19.6001L69.1155 19.5279L69.0102 19.8001H69.302V19.6001ZM72.9116 10.2753V10.0753H72.7746L72.7251 10.2031L72.9116 10.2753ZM75.126 10.2753L75.3126 10.2031L75.2631 10.0753H75.126V10.2753ZM78.7356 19.6001V19.8001H79.0275L78.9222 19.5279L78.7356 19.6001ZM76.5948 19.4689L76.4781 19.6312V19.6312L76.5948 19.4689ZM76.342 19.1329L76.1526 19.197L76.1529 19.1979L76.342 19.1329ZM75.7916 17.5073L75.9811 17.4431L75.9351 17.3073H75.7916V17.5073ZM72.246 17.5073V17.3073H72.1026L72.0566 17.4431L72.246 17.5073ZM71.6956 19.1329L71.884 19.2001L71.8851 19.197L71.6956 19.1329ZM73.6028 13.4945L73.4166 13.4209L73.4133 13.4305L73.6028 13.4945ZM72.7452 16.0353L72.5557 15.9713L72.4667 16.2353H72.7452V16.0353ZM73.8076 12.9185L73.9977 12.9806V12.9806L73.8076 12.9185ZM74.0188 12.1953L74.2113 12.1407L74.0114 11.4353L73.8254 12.1445L74.0188 12.1953ZM74.2396 12.9089L74.429 12.8445L74.2396 12.9089ZM74.4348 13.4817L74.6244 13.418L74.6241 13.4169L74.4348 13.4817ZM75.2924 16.0353V16.2353H75.5706L75.482 15.9716L75.2924 16.0353ZM85.014 19.6001V19.8001H85.214V19.6001H85.014ZM85.014 11.9905V11.7905H84.814V11.9905H85.014ZM82.8508 19.6001H82.6508V19.8001H82.8508V19.6001ZM82.8508 11.9905H83.0508V11.7905H82.8508V11.9905ZM80.2268 11.9905H80.0268V12.1905H80.2268V11.9905ZM80.2268 10.2753V10.0753H80.0268V10.2753H80.2268ZM87.638 10.2753H87.838V10.0753H87.638V10.2753ZM87.638 11.9905V12.1905H87.838V11.9905H87.638ZM91.5484 19.1329L91.7368 19.2001L91.7379 19.197L91.5484 19.1329ZM92.0988 17.5073V17.3073H91.9554L91.9094 17.4431L92.0988 17.5073ZM95.6444 17.5073L95.8339 17.4431L95.7879 17.3073H95.6444V17.5073ZM96.1948 19.1329L96.0054 19.197L96.0057 19.1979L96.1948 19.1329ZM96.4476 19.4689L96.5644 19.3065L96.5644 19.3065L96.4476 19.4689ZM98.5884 19.6001V19.8001H98.8803L98.775 19.5279L98.5884 19.6001ZM94.9788 10.2753L95.1654 10.2031L95.1159 10.0753H94.9788V10.2753ZM92.7644 10.2753V10.0753H92.6274L92.5779 10.2031L92.7644 10.2753ZM89.1548 19.6001L88.9683 19.5279L88.863 19.8001H89.1548V19.6001ZM92.598 16.0353L92.4085 15.9713L92.3195 16.2353H92.598V16.0353ZM93.4556 13.4945L93.2694 13.4209L93.2661 13.4305L93.4556 13.4945ZM95.1452 16.0353V16.2353H95.4234L95.3348 15.9716L95.1452 16.0353ZM94.2876 13.4817L94.4772 13.418L94.4769 13.4169L94.2876 13.4817ZM94.0924 12.9089L94.2818 12.8445L94.0924 12.9089ZM93.8716 12.1953L94.0641 12.1407L93.8642 11.4353L93.6782 12.1445L93.8716 12.1953ZM93.6604 12.9185L93.8505 12.9806V12.9806L93.6604 12.9185ZM43.6078 19.2758C43.2186 19.4255 42.7711 19.5025 42.262 19.5025V19.9025C42.8112 19.9025 43.3087 19.8194 43.7514 19.6491L43.6078 19.2758ZM44.5889 18.6608C44.3269 18.9188 44.0013 19.1245 43.6078 19.2758L43.7514 19.6491C44.19 19.4804 44.5641 19.2467 44.8696 18.9457L44.5889 18.6608ZM45.193 17.7469C45.0538 18.097 44.8526 18.401 44.5889 18.6608L44.8696 18.9457C45.1734 18.6465 45.4053 18.2956 45.5647 17.8948L45.193 17.7469ZM45.4028 16.6113C45.4028 17.0186 45.3324 17.3965 45.193 17.7469L45.5647 17.8948C45.724 17.4942 45.8028 17.0658 45.8028 16.6113H45.4028ZM45.2402 15.6957C45.346 15.9395 45.4028 16.2427 45.4028 16.6113H45.8028C45.8028 16.2033 45.7402 15.843 45.6071 15.5364L45.2402 15.6957ZM44.8126 15.0575C44.9869 15.2298 45.1299 15.4416 45.2402 15.6957L45.6071 15.5364C45.4785 15.2401 45.3079 14.9847 45.0939 14.7731L44.8126 15.0575ZM44.1988 14.6208C44.4297 14.7353 44.634 14.8808 44.8126 15.0575L45.0939 14.7731C44.8843 14.5657 44.6448 14.3955 44.3765 14.2625L44.1988 14.6208ZM43.4564 14.3071C43.7089 14.3961 43.9564 14.5007 44.1988 14.6208L44.3765 14.2625C44.1197 14.1352 43.8573 14.0243 43.5893 13.9298L43.4564 14.3071ZM42.7007 14.0605C42.9471 14.1342 43.1989 14.2164 43.4564 14.3071L43.5893 13.9298C43.3262 13.8371 43.0682 13.7529 42.8154 13.6772L42.7007 14.0605ZM42.0086 13.804C42.213 13.8983 42.4439 13.9836 42.7007 14.0605L42.8154 13.6772C42.5729 13.6047 42.3602 13.5258 42.1763 13.4409L42.0086 13.804ZM41.4782 13.4414C41.6185 13.5867 41.7973 13.7065 42.0086 13.804L42.1763 13.4409C41.9993 13.3592 41.8646 13.2657 41.7659 13.1635L41.4782 13.4414ZM41.2428 12.8353C41.2428 13.0696 41.3192 13.2768 41.4782 13.4414L41.7659 13.1635C41.6859 13.0807 41.6428 12.9764 41.6428 12.8353H41.2428ZM41.6091 11.9836C41.3616 12.1992 41.2428 12.4907 41.2428 12.8353H41.6428C41.6428 12.591 41.7225 12.4153 41.8718 12.2853L41.6091 11.9836ZM42.646 11.6753C42.2174 11.6753 41.8591 11.7658 41.6091 11.9836L41.8718 12.2853C42.0185 12.1575 42.264 12.0753 42.646 12.0753V11.6753ZM43.3371 11.7785C43.1293 11.7084 42.898 11.6753 42.646 11.6753V12.0753C42.8634 12.0753 43.0503 12.1039 43.2093 12.1576L43.3371 11.7785ZM43.8575 11.9999C43.703 11.9169 43.5293 11.8433 43.3371 11.7785L43.2093 12.1576C43.3842 12.2165 43.5368 12.2816 43.6682 12.3522L43.8575 11.9999ZM44.2428 12.2086C44.1292 12.1464 44.0008 12.0769 43.8575 11.9999L43.6682 12.3522C43.8108 12.4288 43.9383 12.4979 44.0508 12.5595L44.2428 12.2086ZM44.4636 12.2769C44.4079 12.2769 44.3354 12.2592 44.2428 12.2086L44.0508 12.5595C44.1844 12.6326 44.3231 12.6769 44.4636 12.6769V12.2769ZM44.618 12.2383C44.5901 12.2586 44.544 12.2769 44.4636 12.2769V12.6769C44.6052 12.6769 44.7403 12.6439 44.8533 12.5618L44.618 12.2383ZM44.7676 12.0637C44.7123 12.1521 44.6613 12.2068 44.618 12.2383L44.8533 12.5618C44.9508 12.4909 45.0342 12.392 45.1068 12.2757L44.7676 12.0637ZM45.2985 11.0705L44.7609 12.0753L45.1136 12.264L45.6512 11.2592L45.2985 11.0705ZM44.8086 10.9254C45.0079 11.0401 45.1845 11.169 45.3392 11.3118L45.6105 11.0179C45.4324 10.8535 45.2314 10.7072 45.0082 10.5787L44.8086 10.9254ZM44.1592 10.6267C44.3919 10.7104 44.6083 10.81 44.8086 10.9254L45.0082 10.5787C44.7862 10.4509 44.5482 10.3415 44.2945 10.2503L44.1592 10.6267ZM43.423 10.4374C43.6827 10.4803 43.928 10.5435 44.1592 10.6267L44.2945 10.2503C44.0393 10.1584 43.7704 10.0894 43.4883 10.0427L43.423 10.4374ZM42.6204 10.3729C42.8958 10.3729 43.1633 10.3944 43.423 10.4374L43.4883 10.0427C43.2061 9.99608 42.9168 9.97285 42.6204 9.97285V10.3729ZM41.3303 10.5926C41.6997 10.4477 42.1285 10.3729 42.6204 10.3729V9.97285C42.0883 9.97285 41.6084 10.0538 41.1842 10.2203L41.3303 10.5926ZM40.3904 11.1752C40.6425 10.935 40.9545 10.7401 41.3303 10.5926L41.1842 10.2203C40.7664 10.3843 40.4086 10.6054 40.1145 10.8857L40.3904 11.1752ZM39.8158 11.998C39.9455 11.6915 40.1363 11.4175 40.3904 11.1752L40.1145 10.8857C39.8225 11.164 39.5994 11.483 39.4474 11.8421L39.8158 11.998ZM39.6204 12.9441C39.6204 12.6218 39.6851 12.307 39.8158 11.998L39.4474 11.8421C39.2966 12.1988 39.2204 12.5665 39.2204 12.9441H39.6204ZM39.7852 13.9669C39.678 13.701 39.6204 13.3623 39.6204 12.9441H39.2204C39.2204 13.3962 39.2823 13.7892 39.4141 14.1164L39.7852 13.9669ZM40.213 14.6442C40.0397 14.4671 39.8963 14.2428 39.7852 13.9669L39.4141 14.1164C39.5419 14.4336 39.7121 14.7042 39.9271 14.9239L40.213 14.6442ZM40.8206 15.0846C40.5937 14.973 40.3914 14.8265 40.213 14.6442L39.9271 14.9239C40.137 15.1384 40.3763 15.3119 40.6442 15.4436L40.8206 15.0846ZM41.5549 15.3807C41.3041 15.3006 41.0594 15.2019 40.8206 15.0846L40.6442 15.4436C40.9004 15.5694 41.1634 15.6755 41.4331 15.7618L41.5549 15.3807ZM42.3088 15.6057C42.0641 15.5381 41.8128 15.4632 41.5549 15.3807L41.4331 15.7618C41.6958 15.8457 41.9522 15.9222 42.2025 15.9913L42.3088 15.6057ZM43.0019 15.8537C42.7961 15.7587 42.5648 15.6763 42.3088 15.6057L42.2025 15.9913C42.4414 16.0572 42.6517 16.1326 42.8342 16.2168L43.0019 15.8537ZM43.539 16.2428C43.398 16.0817 43.217 15.9529 43.0019 15.8537L42.8342 16.2168C43.0074 16.2968 43.14 16.3942 43.2379 16.5062L43.539 16.2428ZM43.7676 16.9057C43.7676 16.6497 43.6964 16.4227 43.539 16.2428L43.2379 16.5062C43.3194 16.5993 43.3676 16.7264 43.3676 16.9057H43.7676ZM43.3656 17.8847C43.6464 17.6617 43.7676 17.3192 43.7676 16.9057H43.3676C43.3676 17.243 43.2712 17.4488 43.1169 17.5714L43.3656 17.8847ZM42.326 18.1873C42.7455 18.1873 43.1006 18.0951 43.3656 17.8847L43.1169 17.5714C42.9467 17.7066 42.6917 17.7873 42.326 17.7873V18.1873ZM41.4998 18.0526C41.7411 18.1443 42.0179 18.1873 42.326 18.1873V17.7873C42.0539 17.7873 41.8273 17.7492 41.6419 17.6787L41.4998 18.0526ZM40.9019 17.7685C41.0779 17.8737 41.2775 17.9682 41.4998 18.0526L41.6419 17.6787C41.4375 17.601 41.2595 17.5163 41.107 17.4252L40.9019 17.7685ZM40.4571 17.4978C40.5885 17.5797 40.7368 17.6699 40.9019 17.7685L41.107 17.4252C40.9436 17.3275 40.7975 17.2386 40.6686 17.1583L40.4571 17.4978ZM40.1756 17.4065C40.2594 17.4065 40.3524 17.4326 40.4571 17.4978L40.6686 17.1583C40.5131 17.0614 40.3478 17.0065 40.1756 17.0065V17.4065ZM39.9968 17.4521C40.0524 17.4215 40.1109 17.4065 40.1756 17.4065V17.0065C40.0441 17.0065 39.9192 17.0383 39.8041 17.1016L39.9968 17.4521ZM39.8727 17.5667C39.9 17.5221 39.9394 17.4837 39.9968 17.4521L39.8041 17.1016C39.6908 17.1639 39.598 17.2492 39.5314 17.3582L39.8727 17.5667ZM39.231 18.5806L39.871 17.5694L39.533 17.3555L38.893 18.3667L39.231 18.5806ZM39.8118 18.8016C39.5766 18.6597 39.3743 18.503 39.2035 18.3322L38.9206 18.6151C39.1167 18.8112 39.3453 18.9873 39.6051 19.1441L39.8118 18.8016ZM40.5741 19.1735C40.3029 19.0687 40.0489 18.9447 39.8118 18.8016L39.6051 19.1441C39.863 19.2997 40.138 19.4338 40.43 19.5466L40.5741 19.1735ZM41.4146 19.4167C41.1249 19.3592 40.8448 19.2781 40.5741 19.1735L40.43 19.5466C40.7225 19.6596 41.0248 19.7471 41.3367 19.809L41.4146 19.4167ZM42.262 19.5025C41.9857 19.5025 41.7033 19.474 41.4146 19.4167L41.3367 19.809C41.6496 19.8712 41.9581 19.9025 42.262 19.9025V19.5025ZM53.0252 11.9905V19.6001H53.4252V11.9905H53.0252ZM55.8492 11.7905H53.2252V12.1905H55.8492V11.7905ZM55.6492 10.2753V11.9905H56.0492V10.2753H55.6492ZM48.438 10.4753H55.8492V10.0753H48.438V10.4753ZM48.638 11.9905V10.2753H48.238V11.9905H48.638ZM51.062 11.7905H48.438V12.1905H51.062V11.7905ZM51.262 19.6001V11.9905H50.862V19.6001H51.262ZM53.2252 19.4001H51.062V19.8001H53.2252V19.4001ZM61.5084 19.6001V16.1505H61.1084V19.6001H61.5084ZM59.1452 19.8001H61.3084V19.4001H59.1452V19.8001ZM58.9452 10.2753V19.6001H59.3452V10.2753H58.9452ZM62.1788 10.0753H59.1452V10.4753H62.1788V10.0753ZM63.9596 10.2912C63.4605 10.1458 62.8656 10.0753 62.1788 10.0753V10.4753C62.8404 10.4753 63.3953 10.5434 63.8477 10.6753L63.9596 10.2912ZM65.1955 10.908C64.8689 10.6393 64.4545 10.4355 63.9596 10.2912L63.8477 10.6753C64.3042 10.8083 64.6663 10.9906 64.9414 11.2169L65.1955 10.908ZM65.9098 11.8642C65.7599 11.494 65.5202 11.1751 65.1955 10.908L64.9414 11.2169C65.2183 11.4447 65.4159 11.7104 65.5391 12.0143L65.9098 11.8642ZM66.1292 13.0401C66.1292 12.6199 66.0569 12.2272 65.9098 11.8642L65.5391 12.0143C65.6651 12.3255 65.7292 12.6666 65.7292 13.0401H66.1292ZM65.9991 13.9554C66.0863 13.6665 66.1292 13.361 66.1292 13.0401H65.7292C65.7292 13.325 65.6912 13.5913 65.6162 13.8399L65.9991 13.9554ZM65.6098 14.758C65.7821 14.5122 65.912 14.2444 65.9991 13.9554L65.6162 13.8399C65.5412 14.0885 65.43 14.3177 65.2823 14.5285L65.6098 14.758ZM64.9793 15.4129C65.227 15.222 65.4376 15.0037 65.6098 14.758L65.2823 14.5285C65.1345 14.7393 64.9525 14.9285 64.7352 15.096L64.9793 15.4129ZM64.1251 15.883C64.4445 15.7615 64.7298 15.6052 64.9793 15.4129L64.7352 15.096C64.5197 15.2621 64.2695 15.4002 63.983 15.5091L64.1251 15.883ZM64.5897 15.8123C64.4519 15.6955 64.3031 15.597 64.1435 15.5172L63.9646 15.8749C64.0951 15.9402 64.2172 16.0209 64.3311 16.1174L64.5897 15.8123ZM64.9607 16.251C64.8567 16.0808 64.7333 15.9339 64.5897 15.8123L64.3311 16.1174C64.4393 16.2091 64.5356 16.3225 64.6194 16.4595L64.9607 16.251ZM66.9447 19.4957L64.9607 16.2509L64.6194 16.4596L66.6034 19.7044L66.9447 19.4957ZM64.8156 19.8001H66.774V19.4001H64.8156V19.8001ZM63.8617 19.2906C64.0613 19.6358 64.3944 19.8001 64.8156 19.8001V19.4001C64.5116 19.4001 64.3241 19.2913 64.208 19.0904L63.8617 19.2906ZM62.3124 16.5826L63.8612 19.2898L64.2084 19.0911L62.6596 16.3839L62.3124 16.5826ZM62.1486 16.4019C62.2001 16.4307 62.2567 16.4851 62.3124 16.5825L62.6597 16.384C62.5788 16.2425 62.4754 16.1262 62.3435 16.0526L62.1486 16.4019ZM61.8588 16.3505C62.0091 16.3505 62.0992 16.3743 62.1486 16.4019L62.3435 16.0526C62.2095 15.9778 62.0414 15.9505 61.8588 15.9505V16.3505ZM61.3084 16.3505H61.8588V15.9505H61.3084V16.3505ZM61.3084 14.8593H62.1788V14.4593H61.3084V14.8593ZM61.1084 11.8945V14.6593H61.5084V11.8945H61.1084ZM62.1788 11.6945H61.3084V12.0945H62.1788V11.6945ZM63.548 12.0887C63.229 11.8131 62.7592 11.6945 62.1788 11.6945V12.0945C62.7164 12.0945 63.0722 12.2062 63.2865 12.3914L63.548 12.0887ZM64.0172 13.2001C64.0172 12.7428 63.866 12.3634 63.548 12.0887L63.2865 12.3914C63.5019 12.5775 63.6172 12.8381 63.6172 13.2001H64.0172ZM63.9171 13.8368C63.9845 13.6372 64.0172 13.4245 64.0172 13.2001H63.6172C63.6172 13.3852 63.5903 13.5543 63.5381 13.7089L63.9171 13.8368ZM63.5811 14.3783C63.7351 14.2242 63.8476 14.0431 63.9171 13.8368L63.5381 13.7089C63.4883 13.8568 63.4087 13.9849 63.2982 14.0954L63.5811 14.3783ZM62.9987 14.7354C63.2285 14.6525 63.4247 14.5347 63.5811 14.3783L63.2982 14.0954C63.1901 14.2036 63.0471 14.2927 62.863 14.3591L62.9987 14.7354ZM62.1788 14.8593C62.489 14.8593 62.764 14.8201 62.9987 14.7354L62.863 14.3591C62.6838 14.4238 62.4574 14.4593 62.1788 14.4593V14.8593ZM70.9916 19.8001C71.2085 19.8001 71.4049 19.7411 71.5686 19.6141L71.3234 19.298C71.2397 19.363 71.1332 19.4001 70.9916 19.4001V19.8001ZM69.302 19.8001H70.9916V19.4001H69.302V19.8001ZM72.7251 10.2031L69.1155 19.5279L69.4886 19.6722L73.0982 10.3475L72.7251 10.2031ZM75.126 10.0753H72.9116V10.4753H75.126V10.0753ZM78.9222 19.5279L75.3126 10.2031L74.9395 10.3475L78.5491 19.6722L78.9222 19.5279ZM77.0588 19.8001H78.7356V19.4001H77.0588V19.8001ZM76.4781 19.6312C76.6415 19.7487 76.8399 19.8001 77.0588 19.8001V19.4001C76.9023 19.4001 76.7914 19.3639 76.7116 19.3065L76.4781 19.6312ZM76.1529 19.1979C76.2138 19.3751 76.3242 19.5205 76.4781 19.6312L76.7116 19.3065C76.6223 19.2422 76.5641 19.1637 76.5312 19.0678L76.1529 19.1979ZM75.6022 17.5714L76.1526 19.197L76.5315 19.0687L75.9811 17.4431L75.6022 17.5714ZM72.246 17.7073H75.7916V17.3073H72.246V17.7073ZM71.8851 19.197L72.4355 17.5714L72.0566 17.4431L71.5062 19.0687L71.8851 19.197ZM71.5686 19.6141C71.7154 19.5002 71.8258 19.3631 71.884 19.2001L71.5073 19.0656C71.4802 19.1416 71.4241 19.2199 71.3234 19.298L71.5686 19.6141ZM73.4133 13.4305L72.5557 15.9713L72.9347 16.0992L73.7923 13.5584L73.4133 13.4305ZM73.6175 12.8563C73.5459 13.0756 73.479 13.2636 73.4168 13.421L73.7889 13.5679C73.8547 13.401 73.9244 13.2051 73.9977 12.9806L73.6175 12.8563ZM73.8254 12.1445C73.758 12.4015 73.6887 12.6387 73.6175 12.8563L73.9977 12.9806C74.0717 12.7544 74.1432 12.5095 74.2123 12.246L73.8254 12.1445ZM74.429 12.8445C74.3556 12.6284 74.283 12.3939 74.2113 12.1407L73.8264 12.2498C73.8998 12.5086 73.9744 12.7498 74.0503 12.9732L74.429 12.8445ZM74.6241 13.4169C74.5687 13.2549 74.5036 13.0641 74.429 12.8445L74.0503 12.9732C74.125 13.193 74.1901 13.3841 74.2456 13.5464L74.6241 13.4169ZM75.482 15.9716L74.6244 13.418L74.2453 13.5453L75.1028 16.0989L75.482 15.9716ZM72.7452 16.2353H75.2924V15.8353H72.7452V16.2353ZM85.214 19.6001V11.9905H84.814V19.6001H85.214ZM82.8508 19.8001H85.014V19.4001H82.8508V19.8001ZM82.6508 11.9905V19.6001H83.0508V11.9905H82.6508ZM80.2268 12.1905H82.8508V11.7905H80.2268V12.1905ZM80.0268 10.2753V11.9905H80.4268V10.2753H80.0268ZM87.638 10.0753H80.2268V10.4753H87.638V10.0753ZM87.838 11.9905V10.2753H87.438V11.9905H87.838ZM85.014 12.1905H87.638V11.7905H85.014V12.1905ZM91.1762 19.298C91.0925 19.363 90.986 19.4001 90.8444 19.4001V19.8001C91.0613 19.8001 91.2577 19.7411 91.4214 19.6141L91.1762 19.298ZM91.3601 19.0656C91.333 19.1416 91.2769 19.2199 91.1762 19.298L91.4214 19.6141C91.5682 19.5002 91.6786 19.3631 91.7368 19.2001L91.3601 19.0656ZM91.9094 17.4431L91.359 19.0687L91.7379 19.197L92.2883 17.5714L91.9094 17.4431ZM95.6444 17.3073H92.0988V17.7073H95.6444V17.3073ZM96.3843 19.0687L95.8339 17.4431L95.455 17.5714L96.0054 19.197L96.3843 19.0687ZM96.5644 19.3065C96.4751 19.2422 96.4169 19.1637 96.384 19.0678L96.0057 19.1979C96.0666 19.3751 96.177 19.5205 96.3309 19.6312L96.5644 19.3065ZM96.9116 19.4001C96.7551 19.4001 96.6442 19.3639 96.5644 19.3065L96.3309 19.6312C96.4943 19.7487 96.6927 19.8001 96.9116 19.8001V19.4001ZM98.5884 19.4001H96.9116V19.8001H98.5884V19.4001ZM94.7923 10.3475L98.4019 19.6722L98.775 19.5279L95.1654 10.2031L94.7923 10.3475ZM92.7644 10.4753H94.9788V10.0753H92.7644V10.4753ZM89.3414 19.6722L92.951 10.3475L92.5779 10.2031L88.9683 19.5279L89.3414 19.6722ZM90.8444 19.4001H89.1548V19.8001H90.8444V19.4001ZM92.7875 16.0992L93.6451 13.5584L93.2661 13.4305L92.4085 15.9713L92.7875 16.0992ZM95.1452 15.8353H92.598V16.2353H95.1452V15.8353ZM94.098 13.5453L94.9556 16.0989L95.3348 15.9716L94.4772 13.418L94.098 13.5453ZM93.9031 12.9732C93.9778 13.193 94.0429 13.3841 94.0984 13.5464L94.4769 13.4169C94.4215 13.2549 94.3564 13.0641 94.2818 12.8445L93.9031 12.9732ZM93.6792 12.2498C93.7526 12.5086 93.8272 12.7498 93.9031 12.9732L94.2818 12.8445C94.2084 12.6284 94.1358 12.3939 94.0641 12.1407L93.6792 12.2498ZM93.8505 12.9806C93.9245 12.7544 93.996 12.5095 94.0651 12.246L93.6782 12.1445C93.6108 12.4015 93.5415 12.6387 93.4703 12.8563L93.8505 12.9806ZM93.6417 13.5679C93.7075 13.401 93.7772 13.2051 93.8505 12.9806L93.4703 12.8563C93.3987 13.0756 93.3317 13.2636 93.2696 13.421L93.6417 13.5679Z" fill="black" mask="url(#path-6-outside-1)"/>
</svg>
