<svg viewBox="0 0 52 55" fill="none" xmlns="http://www.w3.org/2000/svg">
<path d="M17.3839 38.2525C17.3721 38.1975 17.3604 38.1425 17.3446 38.0875C17.1639 37.5964 17.0068 37.0975 16.8693 36.5907C16.4646 35.1018 16.2486 33.5382 16.2486 31.9196C16.2486 22.7779 23.1236 15.2468 31.9864 14.2018C31.9943 14.2018 32.0021 14.1979 32.0139 14.1979C32.6975 14.1193 33.3929 14.0721 34.0961 14.0721C34.1668 14.0721 34.2336 14.0761 34.3043 14.08C34.4143 9.35786 37.4864 5.37429 41.7411 3.91286C37.4825 1.42607 32.5325 0 27.2446 0C17.6432 0 9.14572 4.7025 3.91679 11.9271C3.01321 13.1725 2.21179 14.4964 1.51643 15.8793C0.542143 18.0832 0 20.5189 0 23.0804C0 27.0757 1.31214 30.7646 3.53179 33.7386C6.74536 38.0482 11.8643 40.8532 17.6393 40.92C17.6432 40.8336 17.6511 40.7471 17.6511 40.6607C17.6471 39.8318 17.5568 39.0264 17.3839 38.2525Z" fill="url(#paint0_linear)"/>
<path d="M48.4119 21.2613C45.1984 16.9516 40.0794 14.1466 34.3044 14.0798C34.3005 14.1663 34.2926 14.2527 34.2926 14.3391C34.2926 15.1641 34.3869 15.9695 34.5598 16.7434C34.5716 16.7984 34.5834 16.8534 34.5991 16.9084C34.7798 17.3995 34.9369 17.8984 35.0744 18.4052C35.4791 19.8941 35.6951 21.4577 35.6951 23.0763C35.6951 32.2181 28.8201 39.7491 19.9573 40.7941C19.9494 40.7941 19.9416 40.798 19.9298 40.798C19.2462 40.8766 18.5509 40.9238 17.8476 40.9238C17.7769 40.9238 17.7101 40.9198 17.6394 40.9159C17.5294 45.638 14.4573 49.6216 10.2026 51.0831C14.4612 53.5698 19.4112 54.9959 24.6991 54.9959C34.3005 54.9959 42.798 50.2934 48.0269 43.0688C48.9305 41.8234 49.7319 40.4995 50.4273 39.1166C51.3976 36.9127 51.9437 34.4809 51.9437 31.9195C51.9437 27.9241 50.6276 24.2352 48.4119 21.2613Z" fill="url(#paint1_linear)"/>
<path d="M19.9299 40.802C19.9377 40.802 19.9456 40.7981 19.9574 40.7981C28.8202 39.7531 35.6952 32.222 35.6952 23.0802C35.6952 21.4656 35.4752 19.8981 35.0745 18.4091C34.937 17.9024 34.7799 17.3995 34.5991 16.9124C34.5874 16.8574 34.5716 16.8024 34.5599 16.7474C34.387 15.9734 34.2927 15.1681 34.2927 14.3431C34.2927 14.2566 34.3006 14.1702 34.3045 14.0838C34.2338 14.0838 34.167 14.0759 34.0963 14.0759C33.3891 14.0759 32.6977 14.1231 32.0141 14.2016C32.0063 14.2016 31.9984 14.2056 31.9866 14.2056C23.1238 15.2506 16.2488 22.7816 16.2488 31.9234C16.2488 33.5381 16.4688 35.1056 16.8695 36.5945C17.007 37.1013 17.1641 37.6041 17.3449 38.0913C17.3566 38.1463 17.3724 38.2013 17.3841 38.2563C17.557 39.0302 17.6513 39.8356 17.6513 40.6606C17.6513 40.747 17.6434 40.8334 17.6395 40.9199C17.7102 40.9199 17.777 40.9277 17.8477 40.9277C18.5509 40.9277 19.2463 40.8806 19.9299 40.802Z" fill="#812557"/>
<defs>
<linearGradient id="paint0_linear" x1="41.8062" y1="-0.326857" x2="-2.30835" y2="36.9127" gradientUnits="userSpaceOnUse">
<stop stop-color="#FDC05A"/>
<stop offset="1" stop-color="#9F2B7D"/>
</linearGradient>
<linearGradient id="paint1_linear" x1="7.59611" y1="52.5409" x2="54.0024" y2="20.8396" gradientUnits="userSpaceOnUse">
<stop stop-color="#4B64D4"/>
<stop offset="1" stop-color="#732B8E"/>
</linearGradient>
</defs>
</svg>
