<svg width="132" height="33" viewBox="0 0 132 33" fill="none" xmlns="http://www.w3.org/2000/svg">
<path d="M2.88322 10.2914C2.18382 8.41901 1.68426 7.68692 0 7.54614V7.41943C0.927768 7.46167 1.89836 7.47575 3.0545 7.47575C4.16782 7.47575 5.06704 7.46167 6.20891 7.41943V7.54614C4.71021 7.64469 4.13927 8.33454 4.5532 9.57344C5.66652 12.9523 7.05104 16.7394 7.89317 18.8934C8.87803 16.4719 9.94853 13.7266 10.9048 11.2769C10.0913 9.22148 9.70588 7.72916 8.12154 7.54614V7.41943C9.17777 7.47575 10.1198 7.47575 11.019 7.47575C11.9896 7.47575 12.8317 7.46167 13.9451 7.41943V7.54614C12.218 7.67285 11.747 8.37677 12.1752 9.6016C13.3884 13.1071 14.6873 16.6127 15.558 18.7808C16.2431 16.9506 17.2708 14.0222 18.4269 10.4322C19.0835 8.36269 18.4412 7.67285 16.4572 7.54614V7.41943C17.2422 7.43351 17.9131 7.47575 19.112 7.47575C20.1968 7.47575 20.6964 7.46167 21.5813 7.41943V7.54614C20.6107 7.72916 19.6401 8.0952 19.0407 9.74239C17.4563 14.0504 15.7721 18.9075 14.8728 21.7373L14.7729 21.7513C14.0593 19.5129 12.5463 15.5709 11.0476 11.6993C10.0627 14.0222 8.02163 19.1609 7.13668 21.7373L7.03676 21.7513C6.16609 19.0764 3.86808 12.9664 2.88322 10.2914Z" fill="white"/>
<path d="M19.183 19.8931C19.1259 18.8794 19.5398 18.091 20.2963 17.556C21.2811 17.2322 22.6657 16.8521 24.0074 16.472V15.2331C23.9931 14.2617 23.8218 13.6281 23.5078 13.248C23.2223 12.8679 22.7656 12.713 22.1518 12.713C21.8806 12.713 21.6094 12.7271 21.3525 12.7694L21.224 12.8961C21.1099 13.5296 21.1099 14.1772 21.2098 14.8107L20.9814 14.9797C20.8672 15.0078 20.753 15.0219 20.6388 15.0219C20.0394 15.0219 19.6968 14.6559 19.6968 14.1631C19.6968 13.6141 20.1964 13.248 21.1384 12.7271C21.795 12.3892 22.5229 12.1921 23.2651 12.1499C24.5069 12.1499 25.606 12.7553 25.606 15.1345C25.606 16.2749 25.5631 17.5701 25.5631 18.443C25.5631 20.1324 25.7915 20.7659 26.6337 20.7659H27.5186L27.5329 20.8504L25.2491 21.7233C24.8352 21.6388 24.6068 21.5684 24.3214 21.1883C24.1644 20.963 23.9931 20.5407 24.0074 19.8931C23.2651 21.1742 22.5229 21.7233 21.167 21.7233C20.0965 21.7514 19.2115 20.9349 19.183 19.8931ZM23.9788 19.3299C24.0216 18.6964 23.9931 18.0066 23.9931 16.6409C23.0939 16.9366 22.2089 17.2886 21.3525 17.6968C20.9814 18.091 20.7388 18.809 20.8101 19.5834C20.8958 20.3999 21.4667 20.8363 22.2375 20.78C22.9654 20.7237 23.9788 20.1183 23.9788 19.3299Z" fill="white"/>
<path d="M29.0318 17.964V13.0646H27.6901L27.6758 12.8957C28.9461 12.4311 29.9881 11.3189 30.5875 10.0659L30.7874 10.1222C30.6875 10.8965 30.6304 11.6568 30.6161 12.4452L33.642 12.3466L33.4565 13.0787L30.5875 13.0646V17.9217C30.5875 20.2024 31.4297 20.7515 32.6857 20.7515C33.1568 20.7515 33.6135 20.6811 34.0702 20.5544L34.1131 20.6529C33.485 21.0471 32.8285 21.4132 32.1576 21.7229C29.6455 21.7229 29.0318 20.9908 29.0318 17.964Z" fill="white"/>
<path d="M39.6794 20.8361C40.3645 20.8079 41.0354 20.6671 41.6634 20.4137L41.7205 20.5404C40.8213 21.0613 39.8507 21.4696 38.8516 21.7793C36.2824 21.8779 34.3555 20.3997 34.3555 17.1334C34.3555 14.2333 36.211 12.1074 38.9658 12.1074C40.3645 12.1074 41.5635 12.741 41.5635 13.6701C41.5635 14.3881 40.9926 14.7542 40.2789 14.726L40.0933 14.5993C39.8222 13.2759 39.3511 12.3186 38.4091 12.3186C36.7962 12.3186 36.0825 14.2474 36.0825 16.2043C36.0968 18.8369 37.1388 20.8361 39.6794 20.8361Z" fill="white"/>
<path d="M45.1756 6.67334L45.2184 6.72965C45.1613 7.36319 45.1328 8.71472 45.1328 9.99587V13.7548C45.7608 13.2621 46.4174 12.7975 47.0882 12.3751C47.4736 12.2625 47.8733 12.2062 48.2872 12.1921C50.0428 12.1921 50.9278 13.2902 50.9278 15.6836V19.0624C50.9278 20.9489 51.2989 21.315 52.3836 21.4417V21.5684C51.5415 21.5262 51.3274 21.5121 50.3426 21.5121C49.4005 21.5121 48.7582 21.5262 47.9161 21.5684V21.4417C49.115 21.315 49.3434 20.9067 49.3434 19.0202V15.937C49.3434 13.6985 48.4157 13.1495 46.6315 13.1495C46.1176 13.3606 45.6181 13.614 45.1471 13.8956V19.0202C45.1471 20.9067 45.1899 21.2727 46.4888 21.4417V21.5684C45.5039 21.5262 45.2898 21.5121 44.3049 21.5121C43.3201 21.5121 42.949 21.5262 41.9355 21.5684V21.4417C43.1773 21.3431 43.577 20.9067 43.577 19.0483V10.207C43.577 8.7288 43.3914 8.3346 43.1631 8.0108L41.9498 7.70107L41.9355 7.6166C43.0774 7.32095 44.1051 7.01122 45.1756 6.67334Z" fill="white"/>
<path d="M53.2969 17.0348C53.2969 14.1065 54.9811 12.0933 57.2506 12.0933C59.5771 12.0933 60.4621 13.7827 60.4193 15.8381L60.2337 15.993H54.924C54.8241 19.3859 56.3514 20.7093 58.3068 20.7515C59.0776 20.7938 59.8483 20.6248 60.5335 20.287L60.5905 20.47C59.7341 20.9627 58.8492 21.3851 57.9357 21.7511C55.0382 21.9482 53.2969 20.3151 53.2969 17.0348ZM58.7921 15.7537C58.7921 13.9657 58.2355 12.3044 57.0365 12.3044C55.7376 12.3044 54.9383 13.8249 54.9098 15.8381L58.7921 15.7537Z" fill="white"/>
<path d="M62.8447 21.4979C62.0882 21.2727 61.817 20.9629 61.7742 20.428C61.7599 20.1464 61.7742 19.71 61.8741 18.457H62.0026C62.2452 19.7804 63.3015 21.4979 64.7859 21.4979C66.2132 21.4979 66.9412 20.5969 66.9412 19.4847C66.9412 18.4147 66.1133 17.8798 64.843 17.57C63.0303 17.1195 61.9598 16.4719 61.9598 14.8247C61.9598 13.2479 63.2587 12.0794 65.3854 12.0794C65.8992 12.0653 66.4131 12.1357 66.9126 12.2624C67.612 12.4455 67.8404 12.7974 67.8832 13.3042C67.8975 13.5295 67.8975 13.9519 67.8975 14.9655H67.769C67.3837 13.9096 66.4702 12.2906 65.1998 12.2906C63.8581 12.2906 63.3586 13.1775 63.3586 14.1208C63.3586 15.1626 64.0009 15.768 65.4853 16.134C67.4265 16.5986 68.3257 17.4574 68.3257 18.9216C68.3257 20.6673 66.6557 21.7513 64.686 21.7513C64.0722 21.7373 63.4442 21.6528 62.8447 21.4979Z" fill="white"/>
<path d="M91.7781 8.64442C91.6068 11.4883 91.4641 15.2754 91.407 18.5838C91.3641 20.8646 92.1634 21.2024 93.6336 21.301V21.4277C92.6059 21.3855 92.0064 21.3714 90.9788 21.3714C89.9511 21.3714 89.5371 21.3855 88.4238 21.4277V21.301C89.8654 21.1743 90.7789 20.8364 90.9788 18.5135C91.2071 15.6274 91.307 13.0651 91.4783 9.65807C91.564 7.92642 91.2785 7.64485 89.1232 7.40551V7.27881C90.0082 7.30697 90.3793 7.32104 91.2642 7.32104C92.0064 7.32104 92.506 7.32104 93.2339 7.30697C94.6613 11.1082 96.5454 15.6978 97.9727 18.8936C99.4857 15.4162 101.198 11.3475 102.783 7.30697C103.397 7.32104 103.896 7.32104 104.553 7.32104C105.381 7.32104 106.009 7.30697 106.637 7.27881V7.40551C104.667 7.50406 104.538 8.29246 104.538 9.55953C104.553 13.1495 104.681 17.3449 104.767 19.0062C104.867 20.7379 105.338 21.1321 107.008 21.301V21.4277C105.894 21.3855 105.152 21.3714 104.039 21.3714C102.726 21.3714 101.998 21.3855 100.642 21.4277V21.301C102.455 21.1321 102.954 20.6956 102.954 18.9217C102.954 16.3172 102.783 11.3053 102.683 8.37693C101.041 12.2767 98.9718 17.1901 97.3304 21.3432L97.1448 21.4418C95.6176 17.542 93.6621 12.9384 91.7781 8.64442Z" fill="white"/>
<path d="M107.336 16.7816C107.336 14.0223 108.977 11.9668 111.846 11.9668C114.715 11.9668 116.385 14.0363 116.385 16.7816C116.385 19.541 114.715 21.6387 111.846 21.6387C108.977 21.6387 107.336 19.541 107.336 16.7816ZM114.544 16.7816C114.544 14.0223 113.716 12.1357 111.846 12.1357C109.977 12.1357 109.163 14.0223 109.163 16.7957C109.163 19.5692 109.962 21.4839 111.846 21.4839C113.73 21.4839 114.544 19.541 114.544 16.7816Z" fill="white"/>
<path d="M117.227 13.0508C118.254 12.7692 119.453 12.4032 120.481 12.009L120.524 12.0653C120.424 12.7411 120.424 13.5295 120.424 14.4446C120.738 13.8814 121.137 13.3605 121.58 12.8959C122.079 12.3609 122.479 12.1075 122.865 12.009C123.935 11.9667 124.263 12.7411 124.263 13.445C124.263 13.628 124.235 13.811 124.178 13.994L124.049 14.0926C123.364 13.6843 122.765 13.4027 122.137 13.3605C121.437 13.4872 120.923 13.994 120.452 14.6417V18.4429C120.452 20.6391 120.624 21.2304 122.308 21.3149V21.4416C121.323 21.3993 120.766 21.3853 119.767 21.3853C118.768 21.3853 118.24 21.3993 117.227 21.4416V21.3149C118.668 21.2163 118.868 20.625 118.868 18.471V15.6412C118.868 14.163 118.682 13.7688 118.454 13.445L117.241 13.1353L117.227 13.0508Z" fill="white"/>
<path d="M124.707 16.8942C124.707 13.9659 126.391 11.9526 128.661 11.9526C130.987 11.9526 131.872 13.6421 131.829 15.6834L131.644 15.8524H126.334C126.234 19.2453 127.762 20.5687 129.717 20.6109C130.488 20.6531 131.259 20.4842 131.944 20.1463L132.001 20.3293C131.144 20.8221 130.259 21.2444 129.346 21.6105C126.448 21.8076 124.707 20.1886 124.707 16.8942ZM130.202 15.613C130.202 13.8251 129.646 12.1638 128.447 12.1638C127.148 12.1638 126.348 13.6843 126.32 15.6975L130.202 15.613Z" fill="white"/>
<path d="M62.2891 32.6762L63.2597 32.6199C66.6853 32.4087 67.8129 31.3528 71.7666 25.7073L77.7043 17.0491L69.9396 5.54693C67.3704 1.74573 66.8423 0.577218 64.6442 0.422355L63.1455 0.309727L62.9314 0H77.0049L76.8907 0.267491L74.8068 0.323805C72.3946 0.380119 72.0806 1.22483 74.4357 4.9134L80.3734 13.8814H80.4305L85.1978 6.85623C88.7804 1.42193 87.8241 0.886945 84.1844 0.46459L82.6857 0.309727L82.5144 0H95.1463L94.9893 0.309727L94.0188 0.366041C90.6502 0.520904 89.6797 1.32338 85.7687 7.02517L80.7588 14.3601C80.7017 14.3601 90.5503 28.9876 90.5503 28.9876C92.3202 31.5781 92.5771 32.4228 94.8323 32.5776L96.2739 32.6762L96.4309 33H82.4573L82.6143 32.6762L84.6412 32.6199C87.0533 32.5636 87.3674 31.6625 86.0399 29.6071L78.0183 17.57H77.9612C77.9612 17.5137 72.2804 25.8622 72.2804 25.8622C68.6978 31.2402 69.3401 32.1412 73.0797 32.5073L74.5784 32.6621L74.7354 32.9859H62.1035L62.2891 32.6762Z" fill="#B89451"/>
<path d="M109.533 24.8485H108.491V25.4679H109.505V25.834H108.491V26.6927H109.533V27.0588H108.092V24.4824H109.533V24.8485Z" fill="white"/>
<path d="M112.917 24.8625L112.603 25.0455C112.56 24.9611 112.503 24.8907 112.432 24.8484C112.275 24.764 112.089 24.778 111.946 24.8907C111.875 24.947 111.832 25.0314 111.832 25.1159C111.832 25.2426 111.932 25.3412 112.118 25.4256L112.375 25.5242C112.56 25.5805 112.717 25.6931 112.846 25.8339C112.946 25.9606 112.988 26.1155 112.988 26.2844C112.988 26.5097 112.903 26.7209 112.746 26.8757C112.589 27.0306 112.375 27.1151 112.146 27.1151C111.946 27.1291 111.732 27.0447 111.59 26.918C111.433 26.7631 111.333 26.566 111.318 26.3548L111.718 26.2704C111.718 26.383 111.761 26.4956 111.818 26.5801C111.904 26.6927 112.032 26.749 112.175 26.749C112.289 26.749 112.403 26.7068 112.489 26.6223C112.603 26.4956 112.631 26.3267 112.589 26.1718C112.574 26.1296 112.546 26.0873 112.517 26.0592C112.489 26.0169 112.446 25.9888 112.403 25.9606C112.346 25.9325 112.289 25.9043 112.232 25.8762L111.975 25.7776C111.618 25.6227 111.433 25.4116 111.433 25.13C111.433 24.947 111.518 24.764 111.661 24.6513C111.818 24.5246 112.018 24.4542 112.218 24.4542C112.503 24.4261 112.789 24.595 112.917 24.8625Z" fill="white"/>
<path d="M115.6 24.8485V27.0588H115.2V24.8485H114.615V24.4824H116.214V24.8485H115.6Z" fill="white"/>
<path d="M120.937 26.693H121.908V27.059H120.152L121.052 25.975C121.137 25.8624 121.209 25.7779 121.28 25.6934C121.337 25.6371 121.38 25.5667 121.423 25.4963C121.48 25.4118 121.508 25.3133 121.523 25.2147C121.523 25.1021 121.48 24.9895 121.394 24.9191C121.308 24.8346 121.194 24.7924 121.08 24.7924C120.823 24.7924 120.666 24.9473 120.623 25.257H120.224C120.281 24.7079 120.566 24.4404 121.052 24.4404C121.266 24.4404 121.494 24.5108 121.651 24.6657C121.808 24.8065 121.894 25.0036 121.894 25.2147C121.894 25.3555 121.851 25.4963 121.78 25.623C121.722 25.7075 121.68 25.792 121.608 25.8764C121.537 25.975 121.437 26.0876 121.323 26.2143L120.937 26.693Z" fill="white"/>
<path d="M123.75 25.7497C123.736 25.3977 123.836 25.0457 124.036 24.7642C124.264 24.4263 124.735 24.3277 125.092 24.553C125.178 24.6093 125.249 24.6797 125.306 24.7642C125.692 25.3695 125.692 26.1439 125.306 26.7633C125.163 26.9745 124.935 27.0871 124.678 27.1012C124.421 27.1012 124.193 26.9745 124.05 26.7633C123.836 26.4677 123.722 26.1016 123.75 25.7497ZM124.136 25.7497C124.122 25.989 124.179 26.2424 124.279 26.4677C124.35 26.6788 124.578 26.7915 124.778 26.7211C124.907 26.6788 125.006 26.5803 125.035 26.4677C125.235 26.0172 125.235 25.5103 125.035 25.0739C124.964 24.8627 124.75 24.7501 124.535 24.8205C124.407 24.8627 124.307 24.9613 124.279 25.0739C124.179 25.271 124.122 25.5103 124.136 25.7497Z" fill="white"/>
<path d="M127.789 24.8485H127.332L127.546 24.4824H128.174V27.0588H127.775L127.789 24.8485Z" fill="white"/>
<path d="M130.701 25.7074C130.516 25.5807 130.416 25.3836 130.416 25.1584C130.416 24.9613 130.487 24.7782 130.63 24.6374C130.773 24.4967 130.972 24.4263 131.172 24.4263C131.372 24.4263 131.572 24.4967 131.715 24.6374C131.857 24.7782 131.943 24.9613 131.929 25.1584C131.929 25.3695 131.829 25.5807 131.643 25.6933C131.743 25.7496 131.829 25.8341 131.886 25.9327C131.943 26.0453 131.986 26.172 131.972 26.2987C131.986 26.5099 131.9 26.7211 131.743 26.8619C131.586 27.0026 131.386 27.0871 131.172 27.0871C130.958 27.1012 130.744 27.0167 130.573 26.8619C130.416 26.7211 130.33 26.524 130.33 26.3128C130.344 26.0735 130.473 25.8341 130.701 25.7074ZM130.744 26.3128C130.744 26.4254 130.787 26.538 130.872 26.6225C131.044 26.7915 131.315 26.7915 131.472 26.6225C131.558 26.538 131.6 26.4395 131.6 26.3128C131.6 26.0735 131.415 25.8904 131.186 25.8764C131.072 25.8764 130.944 25.9186 130.858 26.0031C130.787 26.0875 130.744 26.2002 130.744 26.3128ZM130.787 25.1724C130.787 25.3836 130.958 25.5666 131.172 25.5666C131.386 25.5666 131.572 25.3977 131.572 25.1865C131.572 25.088 131.529 24.9753 131.458 24.9049C131.301 24.7501 131.058 24.7501 130.901 24.9049C130.83 24.9753 130.787 25.0598 130.787 25.1724Z" fill="white"/>
</svg>
