<svg width="143" height="35" viewBox="0 0 143 35" fill="none" xmlns="http://www.w3.org/2000/svg">
<path d="M5.59821 33.2161C3.905 32.4422 2.56536 31.3893 1.57929 30.0575C0.593216 28.7258 0.0667857 27.2368 0 25.5947H5.81822C5.91643 26.7458 6.46643 27.7083 7.47214 28.4783C8.47393 29.2522 9.73107 29.6372 11.2436 29.6372C12.8229 29.6372 14.0446 29.3347 14.9168 28.7258C15.7889 28.1168 16.225 27.335 16.225 26.3843C16.225 25.3668 15.7418 24.6086 14.7714 24.1136C13.8011 23.6225 12.265 23.0804 10.1593 22.4872C8.12036 21.9293 6.45857 21.3872 5.17786 20.8608C3.89715 20.3343 2.78536 19.529 1.85036 18.4447C0.911431 17.3604 0.44393 15.9304 0.44393 14.1547C0.44393 12.709 0.872143 11.385 1.72464 10.1829C2.58107 8.98468 3.80286 8.0379 5.39786 7.34647C6.99286 6.65504 8.82357 6.30933 10.8979 6.30933C13.9896 6.30933 16.4804 7.09111 18.37 8.65075C20.2596 10.2143 21.2732 12.3436 21.4029 15.0386H15.7811C15.6829 13.8208 15.1879 12.8504 14.3 12.1275C13.4121 11.4047 12.21 11.0433 10.7014 11.0433C9.22036 11.0433 8.08893 11.3222 7.29929 11.88C6.50964 12.4379 6.11679 13.1804 6.11679 14.0997C6.11679 14.8225 6.38 15.4315 6.90643 15.9225C7.43286 16.4136 8.07322 16.8025 8.83143 17.0815C9.58572 17.3604 10.7054 17.714 12.1864 18.1422C14.1586 18.6686 15.7771 19.2029 17.0461 19.745C18.3111 20.2872 19.4032 21.0847 20.3264 22.1375C21.2457 23.1904 21.725 24.585 21.7564 26.3293C21.7564 27.8772 21.3282 29.2561 20.4718 30.474C19.6154 31.6918 18.4093 32.6425 16.8457 33.334C15.2821 34.0254 13.4514 34.3711 11.3457 34.3711C9.20857 34.375 7.29143 33.99 5.59821 33.2161Z" fill="#010137"/>
<path d="M34.3749 11.3457V26.3882C34.3749 27.4096 34.6106 28.1404 35.0899 28.5843C35.5653 29.0282 36.3785 29.2482 37.5296 29.2482H40.9828V33.935H36.5435C34.0096 33.935 32.0728 33.3418 30.7253 32.1593C29.3778 30.9768 28.7021 29.0518 28.7021 26.3882V11.3457H25.4963V6.75714H28.7021V0H34.3749V6.75714H40.9828V11.3457H34.3749V11.3457Z" fill="#010137"/>
<path d="M55.063 7.4724C56.4262 6.69848 58.0448 6.31348 59.9187 6.31348V12.1317H58.4887C56.2848 12.1317 54.6191 12.6935 53.4837 13.8092C52.3484 14.9249 51.7827 16.8656 51.7827 19.6274V33.9313H46.1609V6.7574H51.7827V10.7017C52.6077 9.32276 53.6998 8.24633 55.063 7.4724Z" fill="#010137"/>
<path d="M64.9276 12.9724C66.063 10.8706 67.6069 9.2324 69.5633 8.06562C71.5198 6.89883 73.6805 6.31348 76.0494 6.31348C78.1866 6.31348 80.0527 6.73383 81.6477 7.57062C83.2427 8.4074 84.5155 9.4524 85.4702 10.7017V6.7574H91.143V33.9313H85.4702V29.8888C84.5155 31.1695 83.2191 32.2381 81.573 33.0945C79.9269 33.951 78.053 34.3792 75.9512 34.3792C73.6176 34.3792 71.4805 33.7781 69.5398 32.5799C67.5991 31.3817 66.063 29.7042 64.9276 27.5474C63.7923 25.3945 63.2266 22.9549 63.2266 20.2245C63.2266 17.4942 63.7962 15.0781 64.9276 12.9724ZM84.3112 15.4395C83.5373 14.0567 82.5277 13.0078 81.2784 12.2849C80.0291 11.562 78.6816 11.2006 77.2359 11.2006C75.7901 11.2006 74.4387 11.5542 73.1894 12.2613C71.9401 12.9685 70.9305 14.0056 70.1566 15.3688C69.3826 16.732 68.9976 18.3506 68.9976 20.2245C68.9976 22.0985 69.3826 23.7445 70.1566 25.1549C70.9305 26.5692 71.948 27.6456 73.213 28.3842C74.478 29.1228 75.8177 29.492 77.2319 29.492C78.6777 29.492 80.0252 29.1306 81.2745 28.4078C82.5237 27.6849 83.5334 26.6242 84.3073 25.2256C85.0773 23.827 85.4662 22.1928 85.4662 20.3188C85.4662 18.4449 85.0812 16.8185 84.3112 15.4395Z" fill="#010137"/>
<path d="M105.097 11.3457V26.3882C105.097 27.4096 105.333 28.1404 105.812 28.5843C106.287 29.0282 107.101 29.2482 108.252 29.2482H111.705V33.935H107.266C104.732 33.935 102.795 33.3418 101.447 32.1593C100.1 30.9768 99.4242 29.0518 99.4242 26.3882V11.3457H96.2185V6.75714H99.4242V0H105.097V6.75714H111.705V11.3457H105.097V11.3457Z" fill="#010137"/>
<path d="M116.714 12.9724C117.849 10.8706 119.393 9.2324 121.35 8.06562C123.306 6.89883 125.467 6.31348 127.836 6.31348C129.973 6.31348 131.839 6.73383 133.434 7.57062C135.029 8.4074 136.302 9.4524 137.256 10.7017V6.7574H142.929V33.9313H137.256V29.8888C136.302 31.1695 135.005 32.2381 133.359 33.0945C131.713 33.951 129.839 34.3792 127.737 34.3792C125.404 34.3792 123.267 33.7781 121.326 32.5799C119.385 31.3817 117.849 29.7042 116.714 27.5474C115.578 25.3945 115.013 22.9549 115.013 20.2245C115.009 17.4942 115.578 15.0781 116.714 12.9724ZM136.093 15.4395C135.32 14.0567 134.31 13.0078 133.061 12.2849C131.811 11.562 130.464 11.2006 129.018 11.2006C127.572 11.2006 126.225 11.5542 124.972 12.2613C123.722 12.9685 122.713 14.0056 121.939 15.3688C121.165 16.732 120.78 18.3506 120.78 20.2245C120.78 22.0985 121.165 23.7445 121.939 25.1549C122.713 26.5692 123.73 27.6456 124.995 28.3842C126.26 29.1228 127.6 29.492 129.014 29.492C130.46 29.492 131.807 29.1306 133.057 28.4078C134.306 27.6849 135.316 26.6242 136.09 25.2256C136.86 23.827 137.248 22.1928 137.248 20.3188C137.248 18.4449 136.867 16.8185 136.093 15.4395Z" fill="#010137"/>
</svg>
