<svg width="264" height="66" viewBox="0 0 264 66" fill="none" xmlns="http://www.w3.org/2000/svg">
<path d="M5.76644 20.5828C4.36765 16.8379 3.36851 15.3737 0 15.0922V14.8387C1.85554 14.9232 3.79671 14.9514 6.109 14.9514C8.33564 14.9514 10.1341 14.9232 12.4178 14.8387V15.0922C9.42041 15.2893 8.27855 16.6689 9.1064 19.1468C11.333 25.9044 14.1021 33.4787 15.7863 37.7867C17.7561 32.9437 19.8971 27.4531 21.8097 22.5538C20.1825 18.4428 19.4118 15.4582 16.2431 15.0922V14.8387C18.3555 14.9514 20.2396 14.9514 22.0381 14.9514C23.9792 14.9514 25.6635 14.9232 27.8901 14.8387V15.0922C24.436 15.3456 23.4939 16.7534 24.3503 19.2031C26.7768 26.2142 29.3746 33.2253 31.1159 37.5614C32.4862 33.901 34.5415 28.0444 36.8538 20.8643C38.167 16.7253 36.8824 15.3456 32.9144 15.0922V14.8387C34.4844 14.8669 35.8261 14.9514 38.224 14.9514C40.3936 14.9514 41.3927 14.9232 43.1626 14.8387V15.0922C41.2215 15.4582 39.2803 16.1903 38.0813 19.4846C34.9126 28.1007 31.5441 37.8149 29.7457 43.4744L29.5458 43.5026C28.1185 39.0256 25.0926 31.1416 22.0952 23.3985C20.1254 28.0444 16.0433 38.3217 14.2734 43.4744L14.0735 43.5026C12.3322 38.1527 7.73616 25.9326 5.76644 20.5828Z" fill="#020000"/>
<path d="M38.3669 39.7858C38.2527 37.7585 39.0806 36.1818 40.5935 35.1118C42.5633 34.4642 45.3323 33.7039 48.0157 32.9437V30.4659C47.9871 28.523 47.6446 27.256 47.0165 26.4957C46.4456 25.7355 45.5321 25.4258 44.3046 25.4258C43.7622 25.4258 43.2198 25.4539 42.706 25.5384L42.4491 25.7918C42.2207 27.0589 42.2207 28.3541 42.4205 29.6212L41.9638 29.9591C41.7354 30.0154 41.507 30.0435 41.2787 30.0435C40.0797 30.0435 39.3946 29.3114 39.3946 28.3259C39.3946 27.2278 40.3937 26.4957 42.2778 25.4539C43.5909 24.7782 45.0468 24.384 46.5312 24.2995C49.0148 24.2995 51.2129 25.5102 51.2129 30.2688C51.2129 32.5495 51.1273 35.1399 51.1273 36.8857C51.1273 40.2645 51.584 41.5316 53.2683 41.5316H55.0382L55.0667 41.7005L50.4992 43.4463C49.6714 43.2773 49.2146 43.1365 48.6437 42.3763C48.3297 41.9258 47.9871 41.0811 48.0157 39.7858C46.5312 42.3481 45.0468 43.4463 42.3349 43.4463C40.1939 43.5026 38.424 41.8695 38.3669 39.7858ZM47.9586 38.6596C48.0442 37.3925 47.9871 36.0128 47.9871 33.2816C46.1887 33.8729 44.4188 34.5768 42.706 35.3934C41.9638 36.1818 41.4785 37.6178 41.6212 39.1664C41.7925 40.7995 42.9344 41.6724 44.4759 41.5597C45.9318 41.4471 47.9586 40.2364 47.9586 38.6596Z" fill="#020000"/>
<path d="M58.064 35.9283V26.1297H55.3806L55.3521 25.7918C57.8927 24.8626 59.9766 22.6382 61.1756 20.1323L61.5752 20.2449C61.3754 21.7935 61.2612 23.314 61.2327 24.8908L67.2846 24.6937L66.9135 26.1579L61.1756 26.1297V35.8439C61.1756 40.4053 62.8598 41.5034 65.3719 41.5034C66.314 41.5034 67.2275 41.3626 68.141 41.1092L68.2266 41.3063C66.9706 42.0947 65.6574 42.8268 64.3157 43.4463C59.2915 43.4463 58.064 41.9821 58.064 35.9283Z" fill="#020000"/>
<path d="M79.3598 41.6724C80.7301 41.616 82.0718 41.3345 83.3278 40.8276L83.442 41.0811C81.6436 42.1229 79.7024 42.9394 77.7041 43.5589C72.5657 43.756 68.7119 40.7995 68.7119 34.2671C68.7119 28.4667 72.423 24.215 77.9325 24.215C80.7301 24.215 83.128 25.4821 83.128 27.3405C83.128 28.7765 81.9861 29.5085 80.5588 29.4522L80.1877 29.1988C79.6453 26.5521 78.7033 24.6374 76.8192 24.6374C73.5934 24.6374 72.1661 28.4949 72.1661 32.4087C72.1946 37.6741 74.2785 41.6724 79.3598 41.6724Z" fill="#020000"/>
<path d="M90.3502 13.3464L90.4359 13.4591C90.3217 14.7261 90.2646 17.4292 90.2646 19.9915V27.5094C91.5206 26.5239 92.8338 25.5947 94.1755 24.75C94.9462 24.5248 95.7456 24.4121 96.5734 24.384C100.085 24.384 101.855 26.5802 101.855 31.3669V38.1246C101.855 41.8976 102.597 42.6297 104.766 42.8831V43.1365C103.082 43.0521 102.654 43.0239 100.684 43.0239C98.8001 43.0239 97.5155 43.0521 95.8312 43.1365V42.8831C98.2291 42.6297 98.6859 41.8132 98.6859 38.0401V31.8737C98.6859 27.3968 96.8303 26.2987 93.262 26.2987C92.2343 26.721 91.2352 27.2278 90.2931 27.791V38.0401C90.2931 41.8132 90.3788 42.5452 92.9765 42.8831V43.1365C91.0068 43.0521 90.5786 43.0239 88.6089 43.0239C86.6392 43.0239 85.8969 43.0521 83.8701 43.1365V42.8831C86.3537 42.686 87.153 41.8132 87.153 38.0964V20.4138C87.153 17.4574 86.7819 16.669 86.3251 16.0214L83.8987 15.4019L83.8701 15.233C86.1539 14.6417 88.2092 14.0222 90.3502 13.3464Z" fill="#020000"/>
<path d="M106.593 34.07C106.593 28.2133 109.962 24.1869 114.501 24.1869C119.154 24.1869 120.924 27.5657 120.838 31.6766L120.467 31.9863H109.848C109.648 38.7722 112.702 41.4189 116.613 41.5034C118.155 41.5879 119.696 41.25 121.066 40.5742L121.181 40.9403C119.468 41.9258 117.698 42.7705 115.871 43.5026C110.076 43.8968 106.593 40.6306 106.593 34.07ZM117.584 31.5077C117.584 27.9317 116.47 24.6092 114.073 24.6092C111.475 24.6092 109.876 27.6502 109.819 31.6766L117.584 31.5077Z" fill="#020000"/>
<path d="M125.691 42.9957C124.178 42.5452 123.636 41.9258 123.55 40.8558C123.522 40.2927 123.55 39.4198 123.75 36.9138H124.007C124.492 39.5606 126.605 42.9957 129.574 42.9957C132.428 42.9957 133.884 41.1937 133.884 38.9693C133.884 36.8294 132.229 35.7594 129.688 35.1399C126.063 34.2389 123.922 32.9437 123.922 29.6493C123.922 26.4957 126.519 24.1587 130.773 24.1587C131.8 24.1305 132.828 24.2713 133.827 24.5247C135.226 24.8908 135.683 25.5947 135.768 26.6084C135.797 27.0589 135.797 27.9036 135.797 29.9309H135.54C134.769 27.8191 132.942 24.5811 130.402 24.5811C127.718 24.5811 126.719 26.355 126.719 28.2415C126.719 30.3251 128.004 31.5358 130.973 32.2679C134.855 33.1971 136.653 34.9147 136.653 37.843C136.653 41.3345 133.313 43.5026 129.374 43.5026C128.146 43.4744 126.89 43.3055 125.691 42.9957Z" fill="#020000"/>
<path d="M183.555 17.2884C183.213 22.9761 182.927 30.5503 182.813 37.1672C182.727 41.7287 184.326 42.4044 187.266 42.6015V42.8549C185.211 42.7705 184.012 42.7423 181.957 42.7423C179.901 42.7423 179.073 42.7705 176.847 42.8549V42.6015C179.73 42.3481 181.557 41.6723 181.957 37.0264C182.413 31.2543 182.613 26.1297 182.956 19.3157C183.127 15.8524 182.556 15.2892 178.245 14.8106V14.5572C180.015 14.6135 180.758 14.6416 182.527 14.6416C184.012 14.6416 185.011 14.6416 186.467 14.6135C189.322 22.2159 193.09 31.395 195.944 37.7867C198.97 30.8319 202.396 22.6945 205.565 14.6135C206.792 14.6416 207.791 14.6416 209.104 14.6416C210.76 14.6416 212.016 14.6135 213.272 14.5572V14.8106C209.333 15.0077 209.076 16.5845 209.076 19.1186C209.104 26.2986 209.361 34.6894 209.533 38.0119C209.732 41.4753 210.675 42.2636 214.015 42.6015V42.8549C211.788 42.7705 210.303 42.7423 208.077 42.7423C205.45 42.7423 203.995 42.7705 201.283 42.8549V42.6015C204.908 42.2636 205.907 41.3908 205.907 37.843C205.907 32.634 205.565 22.6101 205.365 16.7534C202.082 24.5529 197.943 34.3797 194.66 42.686L194.289 42.8831C191.234 35.0836 187.323 25.8763 183.555 17.2884Z" fill="#020000"/>
<path d="M214.671 33.5631C214.671 28.0444 217.954 23.9334 223.692 23.9334C229.43 23.9334 232.77 28.0725 232.77 33.5631C232.77 39.0819 229.43 43.2773 223.692 43.2773C217.954 43.2773 214.671 39.0819 214.671 33.5631ZM229.087 33.5631C229.087 28.0444 227.432 24.2713 223.692 24.2713C219.953 24.2713 218.325 28.0444 218.325 33.5913C218.325 39.1382 219.924 42.9676 223.692 42.9676C227.46 42.9676 229.087 39.0819 229.087 33.5631Z" fill="#020000"/>
<path d="M234.454 26.1015C236.509 25.5384 238.907 24.8063 240.963 24.0179L241.048 24.1305C240.849 25.4821 240.849 27.0588 240.849 28.8891C241.477 27.7628 242.276 26.721 243.161 25.7918C244.16 24.7218 244.959 24.215 245.73 24.0179C247.871 23.9334 248.528 25.4821 248.528 26.8899C248.528 27.2559 248.471 27.622 248.356 27.988L248.099 28.1851C246.729 27.3686 245.53 26.8054 244.274 26.721C242.875 26.9744 241.848 27.988 240.906 29.2833V36.8856C240.906 41.2781 241.248 42.4607 244.617 42.6297V42.8831C242.647 42.7986 241.534 42.7705 239.535 42.7705C237.537 42.7705 236.481 42.7986 234.454 42.8831V42.6297C237.337 42.4326 237.737 41.25 237.737 36.942V31.2824C237.737 28.3259 237.366 27.5375 236.909 26.8899L234.483 26.2705L234.454 26.1015Z" fill="#020000"/>
<path d="M249.413 33.7884C249.413 27.9318 252.781 23.9053 257.32 23.9053C261.973 23.9053 263.743 27.2841 263.657 31.3669L263.286 31.7048H252.667C252.467 38.4906 255.522 41.1374 259.432 41.2218C260.974 41.3063 262.516 40.9684 263.886 40.2927L264 40.6587C262.287 41.6442 260.517 42.4889 258.69 43.221C252.895 43.6152 249.413 40.3771 249.413 33.7884ZM260.403 31.2261C260.403 27.6502 259.29 24.3277 256.892 24.3277C254.294 24.3277 252.695 27.3686 252.638 31.3951L260.403 31.2261Z" fill="#020000"/>
<path d="M124.578 65.3524L126.519 65.2398C133.37 64.8174 135.625 62.7056 143.533 51.4147L155.408 34.0981L139.879 11.0939C134.74 3.49147 133.684 1.15444 129.288 0.84471L126.29 0.619454L125.862 0H154.009L153.781 0.534983L149.613 0.647611C144.789 0.760239 144.161 2.44966 148.871 9.82679L160.746 27.7628H160.861L170.395 13.7125C177.56 2.84386 175.648 1.77389 168.368 0.929181L165.371 0.619454L165.028 0H190.292L189.978 0.619454L188.037 0.732082C181.3 1.04181 179.359 2.64676 171.537 14.0503L161.517 28.7201C161.403 28.7201 181.1 57.9753 181.1 57.9753C184.64 63.1561 185.154 64.8456 189.664 65.1553L192.547 65.3524L192.861 66H164.914L165.228 65.3524L169.282 65.2398C174.106 65.1271 174.734 63.3251 172.079 59.2142L156.036 35.1399H155.922C155.922 35.0273 144.56 51.7244 144.56 51.7244C137.395 62.4804 138.68 64.2824 146.159 65.0145L149.156 65.3242L149.47 65.9718H124.207L124.578 65.3524Z" fill="#B89451"/>
<path d="M219.067 49.6971H216.983V50.936H219.01V51.6681H216.983V53.3857H219.067V54.1178H216.184V48.965H219.067V49.6971Z" fill="#020000"/>
<path d="M225.833 49.7253L225.205 50.0913C225.119 49.9223 225.005 49.7816 224.862 49.6971C224.548 49.5282 224.177 49.5563 223.892 49.7816C223.749 49.8942 223.663 50.0631 223.663 50.2321C223.663 50.4855 223.863 50.6826 224.234 50.8515L224.748 51.0486C225.119 51.1613 225.433 51.3865 225.69 51.6681C225.89 51.9215 225.976 52.2312 225.976 52.5691C225.976 53.0196 225.804 53.442 225.49 53.7517C225.176 54.0614 224.748 54.2304 224.291 54.2304C223.892 54.2585 223.464 54.0896 223.178 53.8362C222.864 53.5264 222.664 53.1323 222.636 52.7099L223.435 52.541C223.435 52.7662 223.521 52.9915 223.635 53.1604C223.806 53.3857 224.063 53.4983 224.349 53.4983C224.577 53.4983 224.805 53.4138 224.977 53.2449C225.205 52.9915 225.262 52.6536 225.176 52.3439C225.148 52.2594 225.091 52.1749 225.034 52.1186C224.977 52.0341 224.891 51.9778 224.805 51.9215C224.691 51.8652 224.577 51.8089 224.463 51.7526L223.949 51.5555C223.235 51.2457 222.864 50.8234 222.864 50.2602C222.864 49.8942 223.035 49.5282 223.321 49.3029C223.635 49.0495 224.035 48.9087 224.434 48.9087C225.005 48.8524 225.576 49.1903 225.833 49.7253Z" fill="#020000"/>
<path d="M231.2 49.6971V54.1178H230.4V49.6971H229.23V48.965H232.427V49.6971H231.2Z" fill="#020000"/>
<path d="M241.876 53.3857H243.817V54.1178H240.306L242.105 51.9497C242.276 51.7244 242.419 51.5555 242.561 51.3865C242.676 51.2739 242.761 51.1331 242.847 50.9923C242.961 50.8234 243.018 50.6263 243.047 50.4292C243.047 50.2039 242.961 49.9787 242.79 49.8379C242.618 49.6689 242.39 49.5845 242.162 49.5845C241.648 49.5845 241.334 49.8942 241.248 50.5137H240.449C240.563 49.4155 241.134 48.8806 242.105 48.8806C242.533 48.8806 242.99 49.0213 243.304 49.3311C243.618 49.6126 243.789 50.0068 243.789 50.4292C243.789 50.7108 243.703 50.9923 243.56 51.2457C243.446 51.4147 243.361 51.5836 243.218 51.7526C243.075 51.9497 242.875 52.1749 242.647 52.4283L241.876 53.3857Z" fill="#020000"/>
<path d="M247.5 51.4991C247.471 50.7952 247.671 50.0913 248.071 49.5281C248.528 48.8524 249.47 48.6553 250.183 49.1058C250.355 49.2184 250.497 49.3592 250.611 49.5281C251.382 50.7389 251.382 52.2875 250.611 53.5264C250.326 53.9488 249.869 54.174 249.355 54.2022C248.842 54.2022 248.385 53.9488 248.099 53.5264C247.671 52.9351 247.443 52.2031 247.5 51.4991ZM248.271 51.4991C248.242 51.9778 248.356 52.4846 248.556 52.9351C248.699 53.3575 249.156 53.5828 249.555 53.442C249.812 53.3575 250.012 53.1604 250.069 52.9351C250.469 52.0341 250.469 51.0205 250.069 50.1476C249.926 49.7252 249.498 49.5 249.07 49.6408C248.813 49.7252 248.613 49.9223 248.556 50.1476C248.356 50.5418 248.242 51.0205 248.271 51.4991Z" fill="#020000"/>
<path d="M255.579 49.6971H254.665L255.093 48.965H256.349V54.1178H255.55L255.579 49.6971Z" fill="#020000"/>
<path d="M261.402 51.4147C261.031 51.1613 260.831 50.7671 260.831 50.3166C260.831 49.9224 260.974 49.5563 261.26 49.2747C261.545 48.9932 261.945 48.8524 262.344 48.8524C262.744 48.8524 263.144 48.9932 263.429 49.2747C263.715 49.5563 263.886 49.9224 263.857 50.3166C263.857 50.7389 263.658 51.1613 263.286 51.3865C263.486 51.4991 263.658 51.6681 263.772 51.8652C263.886 52.0904 263.972 52.3439 263.943 52.5973C263.972 53.0196 263.8 53.442 263.486 53.7236C263.172 54.0051 262.773 54.1741 262.344 54.1741C261.916 54.2022 261.488 54.0333 261.145 53.7236C260.831 53.442 260.66 53.0478 260.66 52.6254C260.689 52.1468 260.946 51.6681 261.402 51.4147ZM261.488 52.6254C261.488 52.8507 261.574 53.0759 261.745 53.2449C262.088 53.5828 262.63 53.5828 262.944 53.2449C263.115 53.0759 263.201 52.8788 263.201 52.6254C263.201 52.1468 262.83 51.7807 262.373 51.7526C262.145 51.7526 261.888 51.837 261.716 52.006C261.574 52.1749 261.488 52.4002 261.488 52.6254ZM261.574 50.3447C261.574 50.7671 261.916 51.1331 262.344 51.1331C262.773 51.1331 263.144 50.7952 263.144 50.3729C263.144 50.1758 263.058 49.9505 262.915 49.8097C262.601 49.5 262.116 49.5 261.802 49.8097C261.659 49.9505 261.574 50.1195 261.574 50.3447Z" fill="#020000"/>
</svg>
