<svg viewBox="0 0 530 140" fill="none" xmlns="http://www.w3.org/2000/svg">
<g clip-path="url(#clip0)">
<path d="M44.25 97.37C44.22 97.23 44.19 97.09 44.15 96.95C43.69 95.7 43.29 94.43 42.94 93.14C41.91 89.35 41.36 85.37 41.36 81.25C41.36 57.98 58.86 38.81 81.42 36.15C81.44 36.15 81.46 36.14 81.49 36.14C83.23 35.94 85 35.82 86.79 35.82C86.97 35.82 87.14 35.83 87.32 35.84C87.6 23.82 95.42 13.68 106.25 9.96C95.41 3.63 82.81 0 69.35 0C44.91 0 23.28 11.97 9.97 30.36C7.67 33.53 5.63 36.9 3.86 40.42C1.38 46.03 0 52.23 0 58.75C0 68.92 3.34 78.31 8.99 85.88C17.17 96.85 30.2 103.99 44.9 104.16C44.91 103.94 44.93 103.72 44.93 103.5C44.92 101.39 44.69 99.34 44.25 97.37Z" fill="url(#paint0_linear)"/>
<path d="M123.23 54.1201C115.05 43.1501 102.02 36.0101 87.32 35.8401C87.31 36.0601 87.29 36.2801 87.29 36.5001C87.29 38.6001 87.53 40.6501 87.97 42.6201C88 42.7601 88.03 42.9001 88.07 43.0401C88.53 44.2901 88.93 45.5601 89.28 46.8501C90.31 50.6401 90.86 54.6201 90.86 58.7401C90.86 82.0101 73.36 101.18 50.8 103.84C50.78 103.84 50.76 103.85 50.73 103.85C48.99 104.05 47.22 104.17 45.43 104.17C45.25 104.17 45.08 104.16 44.9 104.15C44.62 116.17 36.8 126.31 25.97 130.03C36.81 136.36 49.41 139.99 62.87 139.99C87.31 139.99 108.94 128.02 122.25 109.63C124.55 106.46 126.59 103.09 128.36 99.5701C130.83 93.9601 132.22 87.7701 132.22 81.2501C132.22 71.0801 128.87 61.6901 123.23 54.1201Z" fill="url(#paint1_linear)"/>
<path d="M50.73 103.86C50.75 103.86 50.77 103.85 50.8 103.85C73.36 101.19 90.86 82.0201 90.86 58.7501C90.86 54.6401 90.3 50.6501 89.28 46.8601C88.93 45.5701 88.53 44.2901 88.07 43.0501C88.04 42.9101 88 42.7701 87.97 42.6301C87.53 40.6601 87.29 38.6101 87.29 36.5101C87.29 36.2901 87.31 36.0701 87.32 35.8501C87.14 35.8501 86.97 35.8301 86.79 35.8301C84.99 35.8301 83.23 35.9501 81.49 36.1501C81.47 36.1501 81.45 36.1601 81.42 36.1601C58.86 38.8201 41.36 57.9901 41.36 81.2601C41.36 85.3701 41.92 89.3601 42.94 93.1501C43.29 94.4401 43.69 95.7201 44.15 96.9601C44.18 97.1001 44.22 97.2401 44.25 97.3801C44.69 99.3501 44.93 101.4 44.93 103.5C44.93 103.72 44.91 103.94 44.9 104.16C45.08 104.16 45.25 104.18 45.43 104.18C47.22 104.18 48.99 104.06 50.73 103.86Z" fill="#812557"/>
<path d="M179.76 100.95C175.45 98.98 172.04 96.3 169.53 92.91C167.02 89.52 165.68 85.73 165.51 81.55H180.32C180.57 84.48 181.97 86.93 184.53 88.89C187.08 90.86 190.28 91.84 194.13 91.84C198.15 91.84 201.26 91.07 203.48 89.52C205.7 87.97 206.81 85.98 206.81 83.56C206.81 80.97 205.58 79.04 203.11 77.78C200.64 76.53 196.73 75.15 191.37 73.64C186.18 72.22 181.95 70.84 178.69 69.5C175.43 68.16 172.6 66.11 170.22 63.35C167.83 60.59 166.64 56.95 166.64 52.43C166.64 48.75 167.73 45.38 169.9 42.32C172.08 39.27 175.19 36.86 179.25 35.1C183.31 33.34 187.97 32.46 193.25 32.46C201.12 32.46 207.46 34.45 212.27 38.42C217.08 42.4 219.66 47.82 219.99 54.68H205.68C205.43 51.58 204.17 49.11 201.91 47.27C199.65 45.43 196.59 44.51 192.75 44.51C188.98 44.51 186.1 45.22 184.09 46.64C182.08 48.06 181.08 49.95 181.08 52.29C181.08 54.13 181.75 55.68 183.09 56.93C184.43 58.18 186.06 59.17 187.99 59.88C189.91 60.59 192.76 61.49 196.53 62.58C201.55 63.92 205.67 65.28 208.9 66.66C212.12 68.04 214.9 70.07 217.25 72.75C219.59 75.43 220.81 78.98 220.89 83.42C220.89 87.36 219.8 90.87 217.62 93.97C215.44 97.07 212.37 99.49 208.39 101.25C204.41 103.01 199.75 103.89 194.39 103.89C188.95 103.9 184.07 102.92 179.76 100.95Z" fill="#010137"/>
<path d="M253.01 45.2799V83.5699C253.01 86.1699 253.61 88.0299 254.83 89.1599C256.04 90.2899 258.11 90.8499 261.04 90.8499H269.83V102.78H258.53C252.08 102.78 247.15 101.27 243.72 98.2599C240.29 95.2499 238.57 90.3499 238.57 83.5699V45.2799H230.41V33.5999H238.57V16.3999H253.01V33.5999H269.83V45.2799H253.01Z" fill="#010137"/>
<path d="M305.67 35.42C309.14 33.45 313.26 32.47 318.03 32.47V47.28H314.39C308.78 47.28 304.54 48.71 301.65 51.55C298.76 54.39 297.32 59.33 297.32 66.36V102.77H283.01V33.6H297.32V43.64C299.42 40.13 302.2 37.39 305.67 35.42Z" fill="#010137"/>
<path d="M330.78 49.42C333.67 44.07 337.6 39.9 342.58 36.93C347.56 33.96 353.06 32.47 359.09 32.47C364.53 32.47 369.28 33.54 373.34 35.67C377.4 37.8 380.64 40.46 383.07 43.64V33.6H397.51V102.77H383.07V92.48C380.64 95.74 377.34 98.46 373.15 100.64C368.96 102.82 364.19 103.91 358.84 103.91C352.9 103.91 347.46 102.38 342.52 99.33C337.58 96.28 333.67 92.01 330.78 86.52C327.89 81.04 326.45 74.83 326.45 67.88C326.45 60.93 327.9 54.78 330.78 49.42ZM380.12 55.7C378.15 52.18 375.58 49.51 372.4 47.67C369.22 45.83 365.79 44.91 362.11 44.91C358.43 44.91 354.99 45.81 351.81 47.61C348.63 49.41 346.06 52.05 344.09 55.52C342.12 58.99 341.14 63.11 341.14 67.88C341.14 72.65 342.12 76.84 344.09 80.43C346.06 84.03 348.65 86.77 351.87 88.65C355.09 90.53 358.5 91.47 362.1 91.47C365.78 91.47 369.21 90.55 372.39 88.71C375.57 86.87 378.14 84.17 380.11 80.61C382.07 77.05 383.06 72.89 383.06 68.12C383.06 63.35 382.08 59.21 380.12 55.7Z" fill="#010137"/>
<path d="M433.03 45.2799V83.5699C433.03 86.1699 433.63 88.0299 434.85 89.1599C436.06 90.2899 438.13 90.8499 441.06 90.8499H449.85V102.78H438.55C432.1 102.78 427.17 101.27 423.74 98.2599C420.31 95.2499 418.59 90.3499 418.59 83.5699V45.2799H410.43V33.5999H418.59V16.3999H433.03V33.5999H449.85V45.2799H433.03Z" fill="#010137"/>
<path d="M462.6 49.42C465.49 44.07 469.42 39.9 474.4 36.93C479.38 33.96 484.88 32.47 490.91 32.47C496.35 32.47 501.1 33.54 505.16 35.67C509.22 37.8 512.46 40.46 514.89 43.64V33.6H529.33V102.77H514.89V92.48C512.46 95.74 509.16 98.46 504.97 100.64C500.78 102.82 496.01 103.91 490.66 103.91C484.72 103.91 479.28 102.38 474.34 99.33C469.4 96.28 465.49 92.01 462.6 86.52C459.71 81.04 458.27 74.83 458.27 67.88C458.26 60.93 459.71 54.78 462.6 49.42ZM511.93 55.7C509.96 52.18 507.39 49.51 504.21 47.67C501.03 45.83 497.6 44.91 493.92 44.91C490.24 44.91 486.81 45.81 483.62 47.61C480.44 49.41 477.87 52.05 475.9 55.52C473.93 58.99 472.95 63.11 472.95 67.88C472.95 72.65 473.93 76.84 475.9 80.43C477.87 84.03 480.46 86.77 483.68 88.65C486.9 90.53 490.31 91.47 493.91 91.47C497.59 91.47 501.02 90.55 504.2 88.71C507.38 86.87 509.95 84.17 511.92 80.61C513.88 77.05 514.87 72.89 514.87 68.12C514.87 63.35 513.9 59.21 511.93 55.7Z" fill="#010137"/>
</g>
<defs>
<linearGradient id="paint0_linear" x1="106.416" y1="-0.832001" x2="-5.8758" y2="93.9597" gradientUnits="userSpaceOnUse">
<stop stop-color="#FDC05A"/>
<stop offset="1" stop-color="#9F2B7D"/>
</linearGradient>
<linearGradient id="paint1_linear" x1="19.3352" y1="133.741" x2="137.46" y2="53.0467" gradientUnits="userSpaceOnUse">
<stop stop-color="#4B64D4"/>
<stop offset="1" stop-color="#732B8E"/>
</linearGradient>
<clipPath id="clip0">
<rect width="529.32" height="140" fill="white"/>
</clipPath>
</defs>
</svg>
