<svg xmlns="http://www.w3.org/2000/svg" version="1.1" xmlns:xlink="http://www.w3.org/1999/xlink" xmlns:svgjs="http://svgjs.com/svgjs" x="0" y="0" viewBox="0 0 512 512" style="enable-background:new 0 0 512 512" xml:space="preserve"><g><g xmlns="http://www.w3.org/2000/svg" id="_38_Question" data-name="38 Question"><path d="m35.86 512a35.94 35.94 0 0 1 -35.55-40.61l12.84-98.12a40.81 40.81 0 0 1 11.56-23.47l338.29-338.29a39.42 39.42 0 0 1 55.67 0l81.82 81.82a39.42 39.42 0 0 1 0 55.67l-338.29 338.29a40.78 40.78 0 0 1 -23.47 11.56l-98.12 12.84a36.31 36.31 0 0 1 -4.75.31zm26.45-129.09-10.05 76.83 76.83-10.05 328.52-328.52-66.78-66.78z" fill="currentColor" data-original="#000000"/><path d="m406.86 232.28a24.93 24.93 0 0 1 -17.68-7.28l-102.18-102.18a25 25 0 0 1 35.4-35.36l102.14 102.14a25 25 0 0 1 -17.68 42.68z" fill="currentColor" data-original="#000000"/></g></g></svg>