<svg width="122" height="67" viewBox="0 0 122 67" fill="none" xmlns="http://www.w3.org/2000/svg">
<path d="M119 60C119 44.5052 112.709 30.4544 102.5 20.18C91.9679 9.58035 77.2659 3 61 3C28.9675 3 3 28.5198 3 60" stroke="#E6E6E6" stroke-width="6"/>
<path d="M3 60C3 28.5198 28.9675 3 61 3C77.2659 3 91.9679 9.58035 102.5 20.18" stroke="#5265AF" stroke-width="6"/>
<path d="M3 60C3 28.5198 28.9675 3 61 3" stroke="#5265AF" stroke-width="6"/>
<circle cx="61.0208" cy="54.4656" r="6" transform="rotate(45 61.0208 54.4656)" stroke="#111212" stroke-width="5"/>
<path d="M76.4762 39.0104L68.6027 54.3199L61.1667 46.884L76.4762 39.0104Z" fill="#111212"/>
<line x1="62" y1="3" x2="62" y2="12" stroke="#5265AF" stroke-width="2"/>
<line x1="22.0607" y1="20.9393" x2="28.4246" y2="27.3033" stroke="#5265AF" stroke-width="3"/>
<line x1="6" y1="58.5" x2="15" y2="58.5" stroke="#5265AF" stroke-width="3"/>
<line y1="-1" x2="9" y2="-1" transform="matrix(-0.707107 0.707107 0.707107 0.707107 101.364 23)" stroke="#E6E6E6" stroke-width="2"/>
<line y1="-1" x2="9" y2="-1" transform="matrix(-1 0 0 1 116.364 60)" stroke="#E6E6E6" stroke-width="2"/>
</svg>
