<svg width="122" height="60" viewBox="0 0 122 60" fill="none" xmlns="http://www.w3.org/2000/svg">
<path d="M119 60C119 28.5198 93.0325 3 61 3C28.9675 3 3 28.5198 3 60" stroke="#E6E6E6" stroke-width="6"/>
<path d="M3 60C3 28.5198 28.9675 3 61 3" stroke="#1966FF" stroke-width="6"/>
<circle cx="62.5" cy="51.4999" r="6" stroke="black" stroke-width="5"/>
<path d="M62.5 29.6428L67.758 46.0357H57.242L62.5 29.6428Z" fill="black"/>
<line x1="62" y1="3" x2="62" y2="12" stroke="#E6E6E6" stroke-width="2"/>
<line x1="22.0607" y1="20.9393" x2="28.4246" y2="27.3033" stroke="#1966FF" stroke-width="3"/>
<line x1="6" y1="58.5" x2="15" y2="58.5" stroke="#1966FF" stroke-width="3"/>
<line y1="-1" x2="9" y2="-1" transform="matrix(-0.707107 0.707107 0.707107 0.707107 101.364 23)" stroke="#E6E6E6" stroke-width="2"/>
<line y1="-1" x2="9" y2="-1" transform="matrix(-1 0 0 1 116.364 60)" stroke="#E6E6E6" stroke-width="2"/>
</svg>
