<svg width="15" height="15" viewBox="0 0 15 15" fill="none" xmlns="http://www.w3.org/2000/svg">
<path fill-rule="evenodd" clip-rule="evenodd" d="M3.61695 1.74816C3.61695 2.71994 2.91877 3.49753 1.79772 3.49753H1.77717C0.697797 3.49753 0 2.71994 0 1.74816C0 0.755824 0.719049 0 1.81891 0C2.91877 0 3.59608 0.755824 3.61695 1.74816ZM3.40519 4.87893V14.9997H0.190116V4.87893H3.40519ZM14.9999 14.9997L15 9.19677C15 6.0881 13.4139 4.64128 11.2982 4.64128C9.59124 4.64128 8.82699 5.62361 8.40027 6.31273V4.8792H5.18481C5.22718 5.82889 5.18481 15 5.18481 15H8.40027V9.34771C8.40027 9.04523 8.42114 8.74349 8.50615 8.52693C8.73851 7.92265 9.26757 7.297 10.1558 7.297C11.3197 7.297 11.7849 8.22506 11.7849 9.5851V14.9997H14.9999Z" fill="black"/>
</svg>
