<svg width="100%" height="100%" viewBox="0 0 19 19" fill="none" xmlns="http://www.w3.org/2000/svg">
<path fill-rule="evenodd" clip-rule="evenodd" d="M9.28089 0.0640259C6.77795 0.0640259 6.46384 0.07497 5.48079 0.119706C4.49966 0.164635 3.82995 0.319965 3.24396 0.547871C2.63781 0.783265 2.12363 1.09815 1.61137 1.6106C1.09872 2.12286 0.783841 2.63704 0.547679 3.243C0.319197 3.82919 0.163675 4.49908 0.119514 5.47983C0.075546 6.46288 0.0640259 6.77718 0.0640259 9.28012C0.0640259 11.7831 0.075162 12.0962 0.119706 13.0793C0.164827 14.0604 0.320157 14.7301 0.547871 15.3161C0.783457 15.9222 1.09834 16.4364 1.61079 16.9487C2.12286 17.4613 2.63704 17.777 3.24281 18.0124C3.82919 18.2403 4.49908 18.3956 5.48002 18.4405C6.46307 18.4853 6.77699 18.4962 9.27974 18.4962C11.7829 18.4962 12.096 18.4853 13.0791 18.4405C14.0602 18.3956 14.7307 18.2403 15.317 18.0124C15.923 17.777 16.4364 17.4613 16.9485 16.9487C17.4611 16.4364 17.776 15.9222 18.0122 15.3163C18.2387 14.7301 18.3943 14.0602 18.4403 13.0795C18.4845 12.0964 18.496 11.7831 18.496 9.28012C18.496 6.77718 18.4845 6.46307 18.4403 5.48002C18.3943 4.49889 18.2387 3.82919 18.0122 3.2432C17.776 2.63704 17.4611 2.12286 16.9485 1.6106C16.4358 1.09796 15.9232 0.783073 15.3165 0.547871C14.7289 0.319965 14.0589 0.164635 13.0777 0.119706C12.0947 0.07497 11.7817 0.0640259 9.27801 0.0640259H9.28089ZM8.45413 1.72484C8.61466 1.72459 8.78736 1.72467 8.97372 1.72475L9.28089 1.72484C11.7416 1.72484 12.0332 1.73368 13.005 1.77784C13.9035 1.81892 14.3912 1.96907 14.7161 2.09522C15.1462 2.26226 15.4528 2.46194 15.7752 2.7845C16.0977 3.10707 16.2974 3.41427 16.4648 3.84435C16.591 4.16884 16.7413 4.65652 16.7822 5.55509C16.8264 6.52662 16.836 6.81846 16.836 9.27801C16.836 11.7376 16.8264 12.0294 16.7822 13.0009C16.7411 13.8995 16.591 14.3872 16.4648 14.7117C16.2978 15.1418 16.0977 15.448 15.7752 15.7704C15.4526 16.0929 15.1464 16.2926 14.7161 16.4597C14.3916 16.5864 13.9035 16.7361 13.005 16.7772C12.0334 16.8214 11.7416 16.831 9.28089 16.831C6.82 16.831 6.52835 16.8214 5.55682 16.7772C4.65825 16.7358 4.17056 16.5856 3.84551 16.4595C3.41542 16.2924 3.10822 16.0927 2.78565 15.7702C2.46309 15.4476 2.26341 15.1412 2.09598 14.7109C1.96984 14.3864 1.8195 13.8987 1.7786 13.0002C1.73444 12.0286 1.72561 11.7368 1.72561 9.27571C1.72561 6.81462 1.73444 6.52432 1.7786 5.55279C1.81969 4.65422 1.96984 4.16653 2.09598 3.84167C2.26302 3.41158 2.46309 3.10438 2.78565 2.78181C3.10822 2.45925 3.41542 2.25957 3.84551 2.09214C4.17037 1.96542 4.65825 1.81566 5.55682 1.77438C6.407 1.73598 6.73648 1.72446 8.45413 1.72254V1.72484ZM13.0944 4.36065C13.0944 3.74989 13.5898 3.2551 14.2004 3.2551V3.25472C14.8109 3.25472 15.3063 3.75008 15.3063 4.36065C15.3063 4.97121 14.8109 5.46658 14.2004 5.46658C13.5898 5.46658 13.0944 4.97121 13.0944 4.36065ZM9.2807 4.54727C6.66706 4.54737 4.54804 6.66646 4.54804 9.28012C4.54804 11.8938 6.66717 14.012 9.28089 14.012C11.8946 14.012 14.013 11.8938 14.013 9.28012C14.013 6.6664 11.8944 4.54727 9.2807 4.54727ZM12.3529 9.28012C12.3529 7.5834 10.9774 6.20809 9.28089 6.20809C7.58417 6.20809 6.20886 7.5834 6.20886 9.28012C6.20886 10.9767 7.58417 12.3522 9.28089 12.3522C10.9774 12.3522 12.3529 10.9767 12.3529 9.28012Z" fill="black"/>
</svg>
