<svg width="18" height="15" viewBox="0 0 18 15" fill="none" xmlns="http://www.w3.org/2000/svg">
<path d="M8.76248 4.04541L8.79874 4.64334L8.19439 4.57012C5.99456 4.28946 4.07272 3.33766 2.44098 1.73912L1.64324 0.945954L1.43776 1.53168C1.00262 2.83736 1.28063 4.21625 2.18715 5.14365C2.67063 5.65615 2.56185 5.72937 1.72784 5.4243C1.43776 5.32668 1.18393 5.25347 1.15976 5.29008C1.07515 5.37549 1.36523 6.48593 1.59489 6.92522C1.90915 7.53535 2.54976 8.13328 3.25081 8.48715L3.84307 8.76781L3.14202 8.78002C2.46515 8.78002 2.44098 8.79222 2.5135 9.04847C2.75524 9.84164 3.71011 10.6836 4.77377 11.0497L5.52316 11.306L4.87047 11.6964C3.90351 12.2578 2.76733 12.575 1.63115 12.5994C1.08723 12.6116 0.640015 12.6604 0.640015 12.697C0.640015 12.8191 2.11463 13.5024 2.97281 13.7709C5.54734 14.564 8.60535 14.2224 10.9019 12.8679C12.5336 11.9039 14.1654 9.98807 14.9269 8.13328C15.3378 7.14487 15.7488 5.33889 15.7488 4.4725C15.7488 3.91118 15.785 3.83797 16.4619 3.16683C16.8608 2.77634 17.2355 2.34925 17.308 2.22723C17.4289 1.99538 17.4168 1.99538 16.8003 2.20282C15.7729 2.5689 15.6279 2.52009 16.1356 1.97097C16.5102 1.58049 16.9575 0.872738 16.9575 0.665294C16.9575 0.628686 16.7762 0.689699 16.5707 0.799523C16.3531 0.921549 15.8696 1.10459 15.507 1.21441L14.8543 1.42185L14.2621 1.01917C13.9357 0.799523 13.4764 0.555471 13.2347 0.482255C12.6182 0.311419 11.6754 0.335824 11.1194 0.531066C9.60857 1.08018 8.6537 2.49568 8.76248 4.04541Z" fill="black"/>
</svg>
