<svg viewBox="0 0 19 20" fill="none" xmlns="http://www.w3.org/2000/svg">
<path d="M6.09768 13.4176C6.09354 13.3984 6.08941 13.3791 6.0839 13.3598C6.02051 13.1875 5.96539 13.0125 5.91716 12.8348C5.77522 12.3125 5.69943 11.764 5.69943 11.1963C5.69943 7.98968 8.11094 5.34804 11.2197 4.98149C11.2225 4.98149 11.2252 4.98012 11.2294 4.98012C11.4691 4.95256 11.7131 4.93602 11.9597 4.93602C11.9845 4.93602 12.0079 4.9374 12.0328 4.93878C12.0713 3.28241 13.1489 1.88511 14.6413 1.37249C13.1476 0.500216 11.4113 0 9.55647 0C6.18863 0 3.208 1.64947 1.37387 4.18363C1.05693 4.62046 0.775818 5.08484 0.53191 5.5699C0.190165 6.34296 0 7.19733 0 8.09579C0 9.49722 0.460254 10.7912 1.23883 11.8343C2.36604 13.346 4.16158 14.3299 6.18725 14.3533C6.18863 14.323 6.19138 14.2927 6.19138 14.2624C6.19 13.9716 6.15831 13.6891 6.09768 13.4176Z" fill="url(#paint0_linear)"/>
<path d="M16.9812 7.45796C15.854 5.94629 14.0584 4.96239 12.0328 4.93896C12.0314 4.96928 12.0286 4.9996 12.0286 5.02991C12.0286 5.31929 12.0617 5.60179 12.1223 5.87325C12.1265 5.89255 12.1306 5.91184 12.1361 5.93113C12.1995 6.10338 12.2546 6.27839 12.3029 6.45615C12.4448 6.97841 12.5206 7.52686 12.5206 8.0946C12.5206 11.3012 10.1091 13.9429 7.00029 14.3094C6.99754 14.3094 6.99478 14.3108 6.99065 14.3108C6.75088 14.3383 6.50697 14.3549 6.26031 14.3549C6.2355 14.3549 6.21208 14.3535 6.18727 14.3521C6.14869 16.0085 5.07109 17.4058 3.5787 17.9184C5.07246 18.7907 6.80875 19.2909 8.66355 19.2909C12.0314 19.2909 15.012 17.6414 16.8461 15.1073C17.1631 14.6704 17.4442 14.2061 17.6881 13.721C18.0285 12.9479 18.22 12.095 18.22 11.1965C18.22 9.79506 17.7584 8.50111 16.9812 7.45796Z" fill="url(#paint1_linear)"/>
<path d="M6.99062 14.3121C6.99338 14.3121 6.99614 14.3107 7.00027 14.3107C10.1091 13.9441 12.5206 11.3025 12.5206 8.09589C12.5206 7.52953 12.4434 6.97971 12.3028 6.45744C12.2546 6.27968 12.1995 6.10329 12.1361 5.93242C12.132 5.91313 12.1265 5.89384 12.1223 5.87454C12.0617 5.60308 12.0286 5.32059 12.0286 5.0312C12.0286 5.00089 12.0314 4.97057 12.0327 4.94026C12.0079 4.94026 11.9845 4.9375 11.9597 4.9375C11.7117 4.9375 11.4691 4.95404 11.2294 4.9816C11.2266 4.9816 11.2239 4.98297 11.2197 4.98297C8.11094 5.34952 5.69943 7.99116 5.69943 11.1978C5.69943 11.7641 5.7766 12.314 5.91716 12.8362C5.96539 13.014 6.02051 13.1904 6.0839 13.3613C6.08803 13.3805 6.09354 13.3998 6.09768 13.4191C6.15831 13.6906 6.19138 13.9731 6.19138 14.2625C6.19138 14.2928 6.18862 14.3231 6.18725 14.3534C6.21205 14.3534 6.23548 14.3562 6.26028 14.3562C6.50694 14.3562 6.75085 14.3396 6.99062 14.3121Z" fill="#812557"/>
<defs>
<linearGradient id="paint0_linear" x1="14.6642" y1="-0.11465" x2="-0.809691" y2="12.9477" gradientUnits="userSpaceOnUse">
<stop stop-color="#FDC05A"/>
<stop offset="1" stop-color="#9F2B7D"/>
</linearGradient>
<linearGradient id="paint1_linear" x1="2.66443" y1="18.4298" x2="18.9421" y2="7.31005" gradientUnits="userSpaceOnUse">
<stop stop-color="#4B64D4"/>
<stop offset="1" stop-color="#732B8E"/>
</linearGradient>
</defs>
</svg>
