<svg width="17" height="18" viewBox="0 0 17 18" fill="none" xmlns="http://www.w3.org/2000/svg">
<path d="M5.68938 12.5192C5.68552 12.5012 5.68166 12.4832 5.67652 12.4652C5.61738 12.3045 5.56595 12.1412 5.52095 11.9753C5.38852 11.488 5.3178 10.9763 5.3178 10.4466C5.3178 7.45469 7.56784 4.98994 10.4685 4.64793C10.471 4.64793 10.4736 4.64665 10.4775 4.64665C10.7012 4.62093 10.9287 4.6055 11.1589 4.6055C11.182 4.6055 11.2039 4.60679 11.227 4.60808C11.263 3.06262 12.2685 1.75889 13.6609 1.28059C12.2672 0.466722 10.6472 0 8.91657 0C5.77424 0 2.99319 1.53903 1.28188 3.90349C0.986159 4.31107 0.723869 4.74436 0.496294 5.19694C0.177431 5.91824 0 6.7154 0 7.5537C0 8.86129 0.429435 10.0686 1.15588 11.0419C2.20761 12.4523 3.88292 13.3704 5.77295 13.3922C5.77424 13.3639 5.77681 13.3356 5.77681 13.3074C5.77552 13.0361 5.74595 12.7725 5.68938 12.5192Z" fill="url(#paint0_linear)"/>
<path d="M15.8442 6.95921C14.7924 5.54876 13.1171 4.63074 11.2271 4.60889C11.2258 4.63717 11.2232 4.66546 11.2232 4.69375C11.2232 4.96375 11.2541 5.22733 11.3107 5.48062C11.3145 5.49862 11.3184 5.51662 11.3235 5.53462C11.3827 5.69533 11.4341 5.85862 11.4791 6.02448C11.6115 6.51177 11.6822 7.0235 11.6822 7.55322C11.6822 10.5451 9.43221 13.0099 6.53159 13.3519C6.52902 13.3519 6.52645 13.3532 6.52259 13.3532C6.29887 13.3789 6.0713 13.3943 5.84115 13.3943C5.81801 13.3943 5.79615 13.393 5.77301 13.3917C5.73701 14.9372 4.73156 16.2409 3.33911 16.7192C4.73285 17.5331 6.35287 17.9998 8.08347 17.9998C11.2258 17.9998 14.0069 16.4608 15.7182 14.0963C16.0139 13.6887 16.2762 13.2555 16.5038 12.8029C16.8213 12.0816 17 11.2857 17 10.4474C17 9.13982 16.5693 7.93251 15.8442 6.95921Z" fill="url(#paint1_linear)"/>
<path d="M6.52236 13.3538C6.52493 13.3538 6.5275 13.3525 6.53136 13.3525C9.43198 13.0105 11.682 10.5457 11.682 7.55384C11.682 7.0254 11.61 6.51239 11.4789 6.0251C11.4339 5.85924 11.3824 5.69467 11.3233 5.53523C11.3194 5.51723 11.3143 5.49923 11.3104 5.48123C11.2539 5.22794 11.223 4.96437 11.223 4.69436C11.223 4.66608 11.2256 4.63779 11.2269 4.6095C11.2037 4.6095 11.1819 4.60693 11.1587 4.60693C10.9273 4.60693 10.701 4.62236 10.4773 4.64808C10.4747 4.64808 10.4721 4.64936 10.4683 4.64936C7.56766 4.99137 5.31763 7.45612 5.31763 10.448C5.31763 10.9765 5.38963 11.4895 5.52077 11.9768C5.56577 12.1426 5.6172 12.3072 5.67635 12.4666C5.6802 12.4846 5.68535 12.5026 5.6892 12.5206C5.74578 12.7739 5.77663 13.0375 5.77663 13.3075C5.77663 13.3358 5.77406 13.3641 5.77278 13.3924C5.79592 13.3924 5.81778 13.3949 5.84092 13.3949C6.07107 13.3949 6.29864 13.3795 6.52236 13.3538Z" fill="#812557"/>
<defs>
<linearGradient id="paint0_linear" x1="13.6823" y1="-0.106973" x2="-0.755475" y2="12.0807" gradientUnits="userSpaceOnUse">
<stop stop-color="#FDC05A"/>
<stop offset="1" stop-color="#9F2B7D"/>
</linearGradient>
<linearGradient id="paint1_linear" x1="2.48605" y1="17.1964" x2="17.6738" y2="6.8212" gradientUnits="userSpaceOnUse">
<stop stop-color="#4B64D4"/>
<stop offset="1" stop-color="#732B8E"/>
</linearGradient>
</defs>
</svg>
